<svg version="1.1" xmlns="http://www.w3.org/2000/svg" width="1000" height="616" viewBox="0 0 1000 616" xml:space="preserve">
<style type="text/css">.st0{fill:#C1BCBC;}</style>
<path id="Path_4" class="st0" d="M922.5,110.8c-1.1,1.2-3.5,1.6-3.6,3.6c0.9,1.3,1.4,2.8,1.5,4.4c0.2,4.4-2.8,9.5-2.9,13.8
	c0,1,1.2,2.9,1.5,4.4c1,6.3-1,11.3,2.2,14.6c6.7-1.3,12.7-3.3,19.7-4.4c2.1-2.5,3-6.2,7.3-6.5c1.4-5.7-4.4-7.3-6.5-11.6
	c-0.7-1.5-0.3-3.5-0.7-5.1c-0.4-1.2-1.8-2.5-2.2-3.6c-0.6-1.6-1-3.6-1.5-5.1c-3.3-9.9-5.8-19.7-9.5-28.4c-0.6,2.1-1.1,0.8-2.9,0.7
	c-2.1,6.2-1.9,12.9,0.7,18.9C924,107.9,923.8,109.4,922.5,110.8z"/>
<path id="Path_5" class="st0" d="M894.9,111.6c0.5,1.2,1.8,2.3,2.2,3.6c0.4,1.4,0.6,2.9,0.7,4.4c0,1.2-1,3-0.7,4.4
	c0.5,3.3,4,6.4,2.9,10.2c5.3,1.2,5.8,12.9,7.3,20.4c4.2-0.6,7.4-2.4,12.4-2.2c-2-2.9-0.7-5.2-0.7-8c-0.1-4.1-2.2-8.9-2.2-11.6
	c0-5.9,4.2-12.6,1.5-18.9c1.2-2.7,5.7-4.4,5.8-8c0.1-1.8-0.8-2.1-1.5-4.4c-0.3-3.2,1-3.6,0-5.8c-10.4,1.8-19.7,4.5-29.1,7.3
	c-0.3,1.9,1,3.8,1.5,5.8C895.1,109.5,894.5,110.7,894.9,111.6z"/>
<path id="Path_6" class="st0" d="M798.8,196c17.8-2.1,40.7-7,58.2-10.9c2.7-0.6,6.5-1.5,9.5-2.2c3.5-0.8,7.8-2.5,9.5-2.2
	c0.5,0.1,1.2,1.6,2.2,2.2c1.7,1,2.8,0.4,3.6,1.5c1.4,1.6,1,5.5,2.9,6.5c7,2.4,13.4,5.5,21.1,7.3c0.1-2.6,0.4,7.1,3.5,4.4
	c1.6,0,2.7-2.2,2.4-3.8l-2.9-2.7c3.2-3.4,2.8-3.1,1.5-8c-1.2-4.5-1.3-9.9-2.2-13.8c-0.3-1.5-1.3-2.3-1.5-3.6
	c-0.5-5.1-0.2-10.3,0.7-15.3c0.2-0.9-1.3-1.4-1.5-2.2c-0.9-6.6-1.6-12.3-3.6-16.7c-1.9-2-1,2-2.9,0c1-4.7-2.3-8.5-2.9-12.4
	c-0.3-1.7,0.7-2.7,0.7-4.4c0-4-2-5.5-2.9-8c-0.3-0.9,0.2-2,0-2.9s-1.2-1.2-1.5-2.2c-0.5-1.5,1-2.7-0.7-3.6
	c-5.6,2.7-14.1,3.7-20.4,5.1c-5.4,1.2-9.7,5.6-12.4,10.2c-0.9,1.5-1.5,2.6-2.2,3.6c-0.9,1.4-2.1,2.7-1.5,5.1
	c-1.9,2.8-8.1,6.2-6.5,9.5c2.5-3.5,1.4,2,4.4,0c0,2.4-2.4,2.5-2.2,5.1c1.2,2.2,1.7,4.8,1.5,7.3c-1.5,0.7-3.2,1.1-4.4,2.2
	c-1.8,2.8-4,5.2-6.6,7.3c-5.1-0.8-7.7,1.1-10.9,2.2c-1.6-0.1-2.7-1.2-4.4-1.5c-5.5-0.8-11.7,1.8-13.8,2.9c-2.6,1.3-7.2,1.3-6.5,4.4
	c0.3,1.9,2.3,2.1,3.6,2.9c-0.7,3.3,1.8,3.5,1.5,6.5c-0.7,1-1.4,2-2.2,2.9c-0.5,0.5-0.2,0.8-0.7,1.5c-1,1.3-2.5,2.3-3.6,3.6
	c-1,1.2-1.7,3-2.9,4.4c-1.8,2-3.4,2.2-3.6,4.4C797.9,193.6,799.7,194.9,798.8,196z"/>
<path class="st0" d="M929.5,193c0,0-0.6,0.2-1.2,0.5c0.5-0.6,1.1-1.4,1.2-1.9c-2.1,1.3-5,4.5-8.5,4.4c-1.5,2.4-4.4,3.4-8,3.6
	c-0.4,4.2-6,3.2-5.8,8c2.9,1.3,4.5-1.2,6.5-2.2c2.4-1.1,4.5-1.8,6.5-2.9c0.8-0.4,1.3-1.7,2.2-2.2s2.6-0.2,3.6-0.7
	c0.3-0.2,0.4-1.3,0.7-1.5c2-1,4.4,0.1,4.2-2.2l0.2-0.3c1.8-0.8,2.5-3.1,4.2-3.9C931.8,191.1,931.9,193.3,929.5,193z"/>
<path id="Path_9" class="st0" d="M956,161.1c0.7-3.4-1.9-3.4-2.9-5.1c-2.4,0.1-3.9,1.5-5.1-0.7c0-0.7-0.6-0.9-0.7-1.5
	c1.5-3.1,3.1-6.1,5.8-8c-3.9,2.3-4.4-2.7-6.5-4.4c-0.2,0.6-0.6,0.9-1.5,0.7c-0.9,3.1-3.4,5.6-6.5,6.5c-8.6,2-21.6,4.7-30.6,6.5
	c0.1,7.3-0.3,9.5-0.7,16c13.9-0.9,23.5-6.1,37.1-7.3c1.3,2.1,2.2,4.6,4.4,5.8c0.3-0.8,0.8-1.6,1.5-2.2c0,2.7,0.3,5,2.9,5.1
	c1.8-2.4,3.2-5.1,5.8-6.5c-0.5,2.2,1.3,2.1,0.7,4.4c1.5,0.1,2.8-1,2.9-2.5c0-0.1,0-0.2,0-0.4V166C959.2,165.6,959.3,161.6,956,161.1 z"/>
<path id="Path_10" class="st0" d="M943.6,164.7c-2,0.2-4,0.7-5.8,1.5c1.2,5.2,3,11.8,3.6,15.3c1.3-1.2,2.7-2.2,4.4-2.9
	c0.3-3.2-0.2-5.6-1.5-7.3C945.3,168.9,945.1,167.2,943.6,164.7z"/>
<path id="Path_11" class="st0" d="M885.4,233.1c-1.8-0.3-1.6,1.3-3.6,0.7c-1.2,10.7,6,21.4,6.5,32c4.4-0.2,7.4-1.9,11.7-2.2
	c0.6-3.4-2.8-1-2.9-2.2c-0.4-2.4,0.5-3.4,0.7-5.1c-3.9,0.2-4-1.4-5.8-3.6c-1.7-1.8-2.7-4.1-2.9-6.5c-2.4-1.6-5.1-4.6-5.1-8
	C884,236.4,885.8,235.2,885.4,233.1z"/>
<path id="Path_12" class="st0" d="M908.7,172.7c0.3,7.7,2.4,13.6,3.6,20.4c0.2,1.9-2.8,0.6-2.2,2.9c0.2,0.6,0.6,0.9,1.5,0.7
	c1.4-0.3,2-2,2.9-2.9c0.5-0.5,1.7-0.3,2.2-0.7c0.5-0.5,0.1-1.7,0.7-2.2c0.5-0.3,1.8,0.4,2.2,0c0.7-0.6,0.7-1.7,1.5-2.2
	c2.7-1.9,5.8-2.2,9.5-2.9c1.2-1.4-0.1-0.9,0-2.9c3.3,3.8,5-2.1,9.5-1.5c-0.3-6-2.4-10.2-3.6-15.3
	C927.2,168.5,918.1,170.7,908.7,172.7z"/>
<path id="Path_13" class="st0" d="M795.8,253.5c27.9-5.6,56.1-10.9,83.7-16.7c0.8-1.7,1.5-3.4,2.9-4.4h4.4c0.3-1,1.2-1.6,2.2-1.5
	c1.3-1.4,1.7-3.7,2.9-5.1c1.5-1.2,3.4-2,3.6-4.4c-2.3-0.5-3.8-2.8-5.1-3.6c-0.8-0.4-1.5-0.9-2.2-1.5c-0.5-0.5-0.2-1-0.7-1.5
	c-1.6-1.3-2.5-2.3-2.9-4.4c-0.1-0.6,1.4-2,1.5-2.9c0.1-2.4-1.7-1.3-1.5-3.6c2.8-2.6,3-7.7,5.1-10.9c-6.5,0.4-7.5-4.7-9.5-8.7
	c-2,1.2-3-1.9-5.1-2.2c-2.4-0.4-5.1,1.4-8.7,2.2c-3.4,0.8-7.2,0.8-10.2,1.5c-1.6,0.3-2.7,1.1-4.4,1.5c-18,3.8-37.3,7.7-53.9,10.2
	c0.4-2.4-0.5-3.4-0.7-5.1c-2.6,0.4-5.2,4.1-6.5,5.1c-0.7,0.5-1.6,0.3-2.2,0.7c-1,0.7-1.8,1.7-2.2,2.9c-0.6,2.4,1.4,8.2,2.2,13.1
	C790.7,227.2,793.4,243.9,795.8,253.5z"/>
<path id="Path_14" class="st0" d="M908,213.5c-2.5-0.6-2.8,1.1-5.1,0.7c-1.6-7.4,3.6-8,2.9-14.6c-1.5-0.3-4.4-2.1-5.1-2.2
	c-0.9-0.1-1.8,0.8-2.2,0.7c-0.2,0,0.2-1.3,0-1.5c-0.2-0.1-2.3-0.8-2.2-0.7c-3.1-1-3.5-0.3-5.8-0.7c0.4,0,0.8-0.6,0-0.7
	c-1.7,1.1-0.7,3.2-1.5,5.1c-0.7,1.7-2.7,2.9-2.9,5.1c2.8,2.1,0.1,4.1,0,7.3c0.5,1.8,2.6,1.6,3.6,2.9c0.5,0.7,0,1.7,0.7,2.2
	c0.7,0.3,1.4,0.6,2.2,0.7c2.4,0.8-0.2-0.1,1.5,2.2c1,1.4,3,0.3,2.9,2.2c-0.6,1.3-2.3,2.1-0.7,3.6c-0.9,0-1-0.9-2.2-0.7
	c-0.5,2.2-2.8,2.5-2.2,5.8c-2.4,1.2-2.3,2-4.4,2.2c-5.3,8.1,3.9,10.1,7.3,13.1c0.3-1.6,3.6-0.3,5.1-0.7v0.7h1.5
	c0.7,0,0.9,0.6,1.5,0.7c0.1-3.3,0.6-2.9,0-5.8c2.9-0.7,1.9-3.6,2.9-5.8c0.5-1.2,2-1.8,2.2-2.2c1.1-2.4,0.2-2.6-0.7-2.9
	c2.1-1.4,0.6-4.4,0.7-7.3C908.1,220.1,909.9,216.1,908,213.5z"/>
<path id="Path_17" class="st0" d="M763.1,297.2c0.3,1,2.7,3.7,4.4,5.8c3.1,4.2,4.9,7.2,10.2,7.3c0.4,4.2,3.8,5.4,7.3,6.5
	c2-0.7,2.7-2.6,4.4-3.6c2.5,2.5,5.3-1,8-0.7c0.1-1.3,0.5-2.4,1.5-2.9c4.1,0.2,4.7-3.1,8.7-2.9c1-2.2-0.4-4.6,0-6.5
	c0.7-3.7,3.4-5.3,4.4-8c0.4-1.1-0.4-2.6,0-3.6c0.6-1.6,2.5-3.5,2.9-5.1c0.5-1.8-0.9-3.5,0.7-5.1c2.7-2.2,3.3,2.6,6.5,2.2
	c3.7-2.3,0.2-12,7.3-10.9c-0.9-4,2.9-3.1,3.6-4.4c0.3-0.5-0.2-1.6,0-2.2c0.1-0.3,1.3-1.1,1.5-1.5c0.6-2.4-0.4-5.6,1.5-8
	c3.3-1.3,6,3.5,10.2,3.6c0.6-2.8,0.2-3.7-0.7-5.1c-0.3-0.5-0.3-1.5-0.7-2.2c-0.1-0.2-1.3,0.2-1.5,0s0.2-1.3,0-1.5
	c-1.4-1-4.5-0.2-5.8-1.5c0.3,2.2-1.9,1.3-2.9,2.2c-1.2,1-1.6,3.5-3.6,3.6c-1.8,0.1-2.3-1.1-3.6-1.5c-0.6,3.4-2.8,4.4-5.1,4.4
	c-1.5,2.1-2.2,5.1-5.1,5.8v0.7c-0.2,0.8-0.8,1.1-1.5,1.5c-0.8-4.1-1.2-8.5-2.2-12.4c-6.8,0.5-12.2,2.3-18.9,2.9
	c-0.9-3.5-2.8-17.1-3.8-21.5c-1.2,1,1.9,4.4-0.6,13.6c-0.5,1.7,0,5.2-0.2,6.8c0,1.3-0.2,2.7-0.5,4c-0.6,1.6-2.6,3.2-3.6,4.4
	c-1.5,1.7-2.6,3.5-4.4,4.4c-0.1-1.1-1.8-0.7-2.9-0.7c1.7,3-2.2,2.7-2.9,4.4c-1.3,3.1,1.2,7.2-2.2,9.5c-0.9-1.1-0.6-3.3-2.9-2.9
	c-1.3,2.1-2.3,7.5-0.7,10.2c-3.7,0.2-1.6,6.2-6.5,5.1C764.3,293,762.6,295.4,763.1,297.2z"/>
<path id="Path_18" class="st0" d="M761.6,290.7c-2.8-1.4-5.3-3.4-7.3-5.8c-1.5,1.2-2,3.3-4.4,3.6c-2.9,1.7-2.7-0.9-5.8-0.7
	c-1.4,0.3-1.3,2.1-3.6,1.5c-1.8-1.9-4.7-2.6-8.7-2.2c-2.1-1.8-2.7-5.5-5.8-6.5c-1.3-0.5-2.1,0.6-3.6,0.7c-1.3,0.1-2.9-1.5-3.6,0
	c0.3,2.6,1.6,4.2,1.5,7.3c-4.2-0.4-4.7,3.2-7.3,3.6c-0.3,0-2.5-2.7-3.6-0.7c-0.6,2.1,1,1.9,0.7,3.6c-1.1,2.3-4.2,2.6-3.6,6.5
	c-0.7,1.5-3.8,0.6-3.6,2.9c-1.6,0.3-0.3,3.6-0.7,5.1c-1.3,0-4.2,2-5.1,0c-3.1,1-2.1-3.7-4.4-1.5c-2,1.7-1.9,5.4-3.6,7.3
	c-1-1.7-3.3-2.1-5.1-2.9c-2.3,0.9-2.3,4-4.4,5.1c-1.1-2.1-3.8-2.5-6.5-2.9c-2.6,1-0.9,2-3.6,2.9c-0.8-1.4-3-1.6-4.4-0.7
	c1.6,1.4-2.9,2.9-3.6,4.4c-0.2,3.2,2.2,3.2,0.7,5.8c-2.7,0.2-4,1.8-6.5,2.2c-1,3.9,2.1,3.7,1.5,7.3c-3.6,2.1-6.7-1.9-10.2-2.2
	c-6.3,2.3-0.4,8.6-2.9,15.3v1.5c7.6,0.1,13.8-1.3,21.1-1.5c0.4-2.3-1.3-2.6-0.7-5.1c9.4,2,20.4-1.4,31.3-2.2c2.9-0.2,5.9,0.2,8.7,0
	c5.6-0.4,10.6-1.8,14.6-2.2c2.9-0.3,5.7,0.2,8.7,0c2.3-0.2,7.2-1.2,8.7-1.5c3.7-0.5,8.9-0.2,10.9-0.7c1.2-0.4,2.9-2.1,4.4-2.9
	c0.4-0.2,1.1,0.2,1.5,0s0.4-1.3,0.7-1.5c1.1-0.6,3.1-0.4,3.6-0.7c0.7-1,1.4-2,2.2-2.9c1.6-1.4,2.9-3.1,3.6-5.1
	c2.9-6,9.5-7.5,11.6-13.1c0.8,0,0.6-0.9-0.7-0.7c-5.7-3-8.2-9.3-12.4-13.8C763.4,295.4,761.6,292.9,761.6,290.7z"/>
<path id="Path_19" class="st0" d="M747.1,219.3c1.6,0.6-1.4,0.5-3.6,0.7c0.2-1,1.2-1.2,1.5-2.2c-2.3-0.5-4.9-2.4-7.3-2.9
	c-1,0-2,0.2-2.9,0.7c-0.1-0.1,0.1-1.5,0-1.5c-1.9,0-4,1.1-5.8,1.5c-5.5,1.1-11.1,1.8-16.7,2.2c1.6,21,5.1,40,6.5,61.1
	c3,0.8,6.3,0,10.2,1.5c0.1,3.1,2.6,3.7,3.6,5.8c3.8-1.5,6.1,0,8,2.2c2.2,0,2.5-1.9,4.4-2.2c1.6,0.6,2.5,1.9,5.1,1.5
	c1.4-2,3-3.8,5.8-4.4c-0.1,1.8,1.1,2.3,1.5,3.6c4,0.9,3.1,3.5,6.5,3.6c1.3,0.1-0.1-1.4,0-1.5c0.5-0.3,1.6,1.4,2.2,0.7
	c0.6-0.7,0.3-2.1,0.7-2.9c0.6-1.1,1-0.8,1.5-2.2c0.5-1.4-0.8-2.3-0.7-3.6c0-2.7,1.4-5.2,3.6-6.5c1.5,0,0.9,2,2.9,1.5
	c1.8-1.7-1.1-1.3-0.7-3.6c2.5-0.1,0.8-3,1.5-4.4c0.1-0.2,1.9-0.4,2.2-0.7c1.2-1.7-0.5-3.4,0.7-3.6c0.4,0.9,2.8-0.5,4.4,0.7
	c1-2.7,5.2-4.3,6.5-8.7c0.3-1.1-0.2-3.5,0-5.8c0.6-7.2,3.3-13.9-0.7-16c0.9-1.1,1.8-2.1,2.9-2.9c-2.3-9.8-4-19.8-5.1-29.8
	c-2.8,0.2-4.3,2.3-6.5,3.6c-1.8,1.1-4.6,1.9-6.5,3.6c-1.2,1.1-1.8,2.4-2.9,3.6c-2.3,2.7-4.7,5.3-8.7,3.6c-2.5,1.3-4.7,4.2-8,4.4
	C750.6,220.2,749.1,217.5,747.1,219.3z"/>
<path class="st0" d="M706.1,108c0.2-2.8-0.8-4.6-2.9-5.1c-1,0.7-1.4,2-2.9,2.2c-1.1-2.7-4.4,0.2-8-0.7c-0.7-2.1-1-4.3-0.7-6.5
	c-3.1-0.7-5.2,2.2-8,2.9c-3.1,0.8-5.2,0.2-7.3,0.7c-3.9,1-3.4,1.4-5.1,2.9c-0.9,0.8-2.4,1-2.9,1.5c-0.8,0.8-0.6,3.4-2.9,2.9
	c-4.7-1.2-6.8-1.3-12.4-0.7c-2-3.8-5.8-9.2-10.9-8.7c-2.2,0.2-2.9,3-5.1,2.2c0.4,0,0.9-0.1,0.7-0.7c-2.6-0.7-0.6,3.3-2.9,2.9
	c-0.6-2.5-0.7-5.5-1.8-7.4c1.2,0.1,1.3-0.7,1.7-1.8v0.7l-0.1,1.8l1.6-1.8c1.6-1.8,3.6-3.2,4.4-5.8v-1.4c-4.2,1-7.7,2.9-8.6,7.2
	c-0.6-0.5-1.4-0.9-2.4-0.9c-1.3,1.6-2.5,3.3-3.6,5.1c-4.7,0.9-5.8,5.4-12.4,4.4c-1.8,0.7-2.5,3-4.2,4.1c-1.6,1.1-4.5,0.8-5.1,2.9
	c2.4,0,4.3,2,4.3,4.4c6.4,1.5,14.1,2.2,18.9,3.6c0.3,0.1,1.1,1.3,1.5,1.5c3,1,5.4-0.1,7.3,0c2.2,0.2,4.5,2.5,6.5,1.5
	c0.7,1.1,1,2.4,0.7,3.6c7.4-0.5,5.1,5.5,5.8,9.9c0.1-0.9,3.4-0.8,3,0.3c-0.4,1.6-1.8,4.7,0.7,5.1c2-4.3,3.9-10.1,5.8-13.1
	c1.4-2.2,1.3-5.4,3.6-6.5v3.6c3.4,0,2.4-4.4,6.5-3.6c0,0.7,0.6,0.9,0.7,1.5l0.5,0.5l0.3,0.3c2.1-1.3,1.5-3.2,2.9-4.4
	c2-1.7,5-1,8.7-1.5c1.5-0.9,1.8-3,3.6-3.6c2.7-1.2,6,0.5,9.5,0.7c0.9,1.3,1.5,2.9,3.6,2.9c0-1.9-0.4-4.3,1.5-4.4
	c2.9,1.2,7.7,0.6,11.6,0.7C711.1,110.8,707.7,110.3,706.1,108z"/>
<path id="Path_27" class="st0" d="M663.4,224.8c2.3,18.2,3.2,37.7,5.8,55.7c-2.3,0.4-1.1,4.2-2.2,5.8c0.3,1.6,2.8,0.3,1.5,1.5
	c-0.2,0.2,1.4,1.9,1.5,2.2c0.6,2.1,0.6,5.3,1.5,6.5c-0.7,0-0.9-0.6-1.5-0.7c-0.5,4.1-4.8,7.6-3.6,10.9c-1.5-1.5-1.4,0.3-2.9,0.7
	c0.6,3.5-1.1,4.7-0.7,8c1.7,1.4,5.4-1.5,6.5-0.7c0.4,0.3-0.2,1.6,0.7,1.5c0.2,0-0.2-2.1,0-2.2c1.7-0.5,3.4-0.7,5.1-0.7
	c1.1,0.2,1.4,1.5,2.9,1.5c1,0,1.2-1.3,2.2-1.5h0.7c1.4-0.2-0.4-1.2,0.7-1.5c1.1,2.4,1.8-1.5,3.6-0.7c0.2,1.1,3.1,3.1,3.6,1.5
	c-1.6-0.5,0.6-0.4,0.7-0.7c0.2-0.5-0.1-2.6,0.7-3.6c0.5-0.7,1.8-0.6,2.2-1.5c-0.5,1.3-2.5-2.3,0-1.5c1.6,0.6,2.9,1.5,2.9,3.6
	c1.4,0.6,1.4-1.4,2.2-1.4c-0.5,0,0.8,2.8,2.9,1.5c1-1.9,0.9-5,1.5-7.3c4.4,2.4,2.5-5.7,6.5-5.8c0.5-3.2-1.9-5.1,0.7-6.5
	c0,2.5,2-0.3,2.9,0c0.4,0.1,0.6,1.6,1.5,1.5c1.5-0.3,0-1.5,0.7-2.2c-0.3,0.3,0.9,0.9,1.5,0.7c0.8-0.3-0.3-4.2,0.7-2.2
	c0.2,1.7,3.2,0.4,2.9-0.7c-1.3-1.4-2.3,1-2.9-1.5c3.9,2.2-2.1-4,1.5-1.5c-1.1-2.4,0.1-3.4,0-5.8c-0.2-4.3-1.6-9.5-2.2-14.6
	c-0.7-5.8-0.8-11.8-1.5-17.5c-0.8-7-2.4-13.8-2.9-19.7c-0.1-1.4,0.3-3,0-4.4c-0.2-1-1.1-1.3-1.5-2.2c0.5-0.7,0.5-1.5,0-2.2
	c-5.4,0.7-12.5,1.7-16,2.2c-6.3,0.9-13.1,0.8-18.2,2.2c0.4-0.1,0.8,0.5,0,0.7c-0.1,0-0.6-1.2-1.5-0.7c-1.6,0.8-2.4,2.1-3.6,2.9
	c-1.5,0.9-4.2,2-4.4,2.2c0.2-0.5,0.4-1,0.7-1.4C665.8,225,664.6,224.9,663.4,224.8z"/>
<path id="Path_29" class="st0" d="M637.1,330.7c0,1.5-1.1,2.7-0.7,3.6c0.7,1.8,3.2,4.4,5.1,4.4c1.6-6.9,9-4.8,13.8-2.2
	c1.9-2.3-1.5-3.9-1.5-6.5c1.8-1.9,3.7-3.6,7.3-3.6c-1.8-3.3,0.6-5.4,0.7-7.3c0.1-1.3-0.8-2.7-0.7-3.6c0.3-2.8,1.9-5.2,0.7-8
	c1.8-0.5,3-3.2,3.6-4.4c0.9-1.6,1.6-3.3,2.2-5.1c0.8-1.9,1.4-2.2,1.5-3.6c0.1-3.7-2.7-6.2-2.9-8.7c-0.1-1.2,0.8-2.5,0.7-2.9
	s-0.9,0.1-0.7-0.7c0.4-1.6,1.4-1.8,1.5-3.6c-0.1-2.9-0.3-5.8-0.7-8.7c-0.9-10-2.6-22.5-3.6-33.5c-0.4-4,0-8.4-0.7-11.6
	c-0.6-2.6-2.5-5-3.6-7.3c-0.3-0.6,0.2-1.6,0-2.2c-0.1-0.3-1.2-1-1.5-1.5c-1.5-2.5-2.9-4.3-2.2-8c-16.1,0.9-31,2.9-48.1,2.9
	c-0.9,2.2,0.9,0.8,2.2,2.2c1.6,1.7,1.5,3.5,2.9,4.4c1.9,1.2,3.2,1.9,3.6,4.4c0.9,4.8-2.9,7-3.6,12.4c-3.7,1.8-7.6,3.3-11.7,4.4
	c-1.7,4.9,2.5,4.9,2.9,9.5c-0.9,2.7-3.6,3.7-2.9,8c-1.8,1.1-4.3,1.5-5.1,3.6c1.7,5.2-1.4,4.2-1.5,8c0,1.8,0.8,3.1,1.5,5.1
	c0.5,1.7,0.7,4.6,1.5,5.8s4.3,3.6,5.1,4.4c0.6,0.6,0.9,1.7,1.5,2.2c2.1,1.8,4.3,1.8,5.8,4.4s1.1,5.6,2.2,8c1.8,0.2,2.6-1.4,4.4-1.5
	c2.1-0.1,4.6,1.6,5.8,2.9c-0.9,3.2-0.7,6-1.5,7.3c-3.3,5.4-2.3,8.9,2.2,10.9c0.3,0.1,0.4,1.3,0.7,1.5c1.1,0.6,2.9,0.3,3.6,0.7
	c0.2,0.2-0.2,1.2,0,1.5c0.2,0.2,1.8-0.3,2.2,0c2.6,1.6,3.7,5,6.5,5.8C634.5,326.4,637.1,328,637.1,330.7z"/>
<path class="st0" d="M662.9,139.4l-2.3,1.8l-2.9,3.4c-0.6,0.3-1,2.1-1.2,2.8c0,0.1,0,0.2,0,0.3c-0.2-0.1-0.3-0.1-0.5-0.2
	c-3,2.1-3.8,5.4-5.8,7.3c-0.8,0.7-1.1,2.2-2.9,1.5c-1.9-4.1,2.3-6.4,2.2-10.9c1,0.1,2.1-0.1,2.9-0.7c0.5-3.6-2.5-3.9-1.5-8
	c-1.1-0.1-2.7,0.3-2.9-0.7c0-3.7,1.1-4.8,0-8c-1.6-0.6-2.8-1.5-5.1-1.5c0.6-2.3-1.2-2.3-1.5-3.6c-3.8-1-7.7,0-10.9-0.7
	c-2-0.4-3.8-2.3-5.8-2.9c-0.8-0.2-2.7-0.6-3.6-0.7c-4.2-0.7-7.3-0.9-11.6-1.5c-2.4-5-8.6-8-15.3-6.5c-0.2-3.2,2.9-5.9,1.5-8
	c-6.2,1.7-14.8,10.4-21.1,5.8c0.1,1.6-0.6,2.3-2.2,2.2c0,5.1,1.2,9,0.7,14.6c-1.9,0.9-3.9,2.9-5.1,3.6c-0.4,0.2-1.9,0.4-2.2,0.7
	c-0.5,0.6-0.3,2.8-0.7,3.6c-0.7,1.6-2.5,1.3-1.5,2.9c2.3,0.8,3.5,2.8,4.4,5.1c-3.5,4.2-0.4,11-2.2,16c2.4-0.8,2.1,1.6,3.6,2.5
	c1.2,0.7,3,0.1,4.4,0.7c0.6,0.3,1.4,1.7,2.2,2.2c1.2,0.8,3.2,1.1,3.6,1.5c2.4,2,3.6,5.4,5.8,7.3c1.3,1,3.5,0.9,4.4,1.5
	c1.7,1.3,2.9,3.1,3.6,5.1c1.1,2.6,0.2,6.7,1.5,9.5c0.7,1.6,2.7,1.6,2.9,3.6c-3.5,3.2,0.6,8.3,0.7,12.4c2.3,0.3,3.9,1.4,6.5,1.5
	c1.2,0.5-0.2,3.6,2.2,2.9c16.9-0.1,31.5-2.5,48.1-2.9c0.4-5.3-0.3-7.8-1.5-10.2c-0.6-0.9-1.1-1.9-1.5-2.9c0.5-0.3,0.7-0.9,0.7-1.5
	c-0.5-2.2-0.7-4.3-0.7-6.5c0.3-3.2,2.1-6.1,2.2-8.7c0.1-1.9-1.6-4.2-0.7-6.5c0.9-1.6,0.9-4,2.9-4.4c-1.3-2.7-1.1-4.7-0.7-8
	c0.3-2.7,3.1-5.5,1.9-7.4c0.7-0.8,1.6-2.3,1.9-3.6c0.5-0.6,2.6-1.3,2.9-2.2C661,143.1,662.9,140.1,662.9,139.4z"/>
<path id="Path_31" class="st0" d="M502.8,188.6l-1,0.5c-1,0.5,1,3.4,0.2,4.6c-0.8,1.2,1.5,0.2,1.5,2.9s-0.5,6.8-2,7.7l0.2,0.8
	c-0.2-0.8-0.8-0.6-0.7,0.7c0.1,2.4,1.6,1.6,2.9,2.2c-2.7-0.1-0.4,3,1.5,4.4c-0.3,8.8,5.8,11.2,5.1,20.4c-0.3,1.3,1.8,1.1,1.5,0.7
	c1,1-0.4,1.1,0.7,2.2c1.5,1.4,1.1,0.8,1.5,3.6c0.2,0.5,0.4,1,0.7,1.5c0,0.7-0.8,0.9-0.7,1.5c0.4,2.7,1.3,5.4,1.5,7.3
	c0.1,1.2-0.9,3.4-0.7,4.4c0.4,1.5,2.9,2.2,2.2,3.6c19.3-0.1,44.1-0.2,62.6-2.2c1.7-0.2,7.5-1.6,8-1.5c2.4,0.5,7.2,7.7,6.9,5.1
	s2.3-4.6,2.3-4.6c0.9-0.3,1.1-1.3,2.4-1.2c0-1.7,1.3-2.1,0.7-4.4c-0.5-2.5,3-0.9,2.2-3.6c0.7-3.2-1.5-3.3-2.2-5.1
	c-2.2-1.3,0.4-3.9,0-5.8c2.9-0.5,9.8-0.8,8-3.6c0.7-2,1.6,2.2,2.9,0c2.4,0,0.7-4.1,2.2-5.1c3-4.9,2.5-6.8-0.7-9.5
	c-0.5-0.4-1-1.1-1.5-1.5s-1.8-0.3-2.2-0.7s0.8-1.1,0.7-1.5c-0.7-1.9-3.9-2.5-4.4-3.6c-0.8-2.3,0.2-1.9-0.7-3.6
	c-3.1,0.4-4.1-1.3-6.5-1.5c-0.6-3.4-3-6.1-2.9-9.5c0.1-1.9,3.3-5.5,0-5.1c-1.8-0.7-1.6-3.6-1.6-3.6
	C585.1,187.4,502.8,188.6,502.8,188.6z"/>
<path id="Path_32" class="st0" d="M492.3,67.2c-0.7,7.6,1.7,12.4,2.2,17.5c1,1.8,1.5,0.5,2.2,1.5c-0.4,3.4-0.4,6.8,0,10.2
	c0.2,1.2,1.3,2.9,1.5,4.4c-0.4,0.9-0.7,1.9-0.7,2.9c0.2,2.9,0.4,6.2,0.7,9.5c0.4,3.9,2.4,5,2.9,7.3c0.9,3.7,0.1,7.6,0.7,10.2
	c0.2,0.9,1.6,0,1.5,0.7c-0.2,1-2.2,0-2.2,0c-0.3,0.3,0.2,1.8,0,2.2c-0.1,0.2-1.2,1.2-1.5,1.5c-1.5,2-2.3,1.8-2.9,2.9
	c2.2-0.4,1.6,3.3,2.2,3.6c0.8,0.4,2.9-0.7,2.9-0.7c0.3,0.4-0.8,1.1-0.7,1.5c0,0.1,1.3,0.5,1.5,0.7c4.9,7.5-0.7,33,1.5,44.4
	c31,0.1,60.9-0.8,89.5-2.9c-1.2-3.9-0.9-8.6-4.4-10.9c-1-0.7-3.6-0.5-5.1-1.5c-1.2-2.4-3.3-3.9-4.4-6.5c-1.8-0.5-3.5-1.2-5.1-2.2
	c-2-1.1-0.4,0.4-1.5-2.2c-2.1-0.1-1.9,0.3-3.6,0c0.4,0.1,0.8-0.7,0-0.7c-0.4,0-1.3,0.8-1.5,0.7c0.2,0.1,0.4-1.7,0-2.2
	c-0.2-0.2-1.2,0.2-1.5,0c-0.2-0.2,0.2-1.4,0-1.5c-1.2-0.5-1.9,1.2-2.2,0c1.2,0.4,0.3-1.2,0-2.2c-0.2-0.6,1.4-1.1,1.5-2.2
	c0.2-2.5-1.2-5.6-0.7-8.7c0.3-2.2,1.8-3,1.5-5.1c-1.2-1.7-4.1-1.7-4.4-4.4c-0.5-1.5,1.1-1.6,1.5-2.2c0.7-1.2,0.3-3.1,0.7-3.6
	c1.8-2.4,4.8-2.7,7.3-4.4c0.7-3.5-0.5-9.8,0-15.3c2.7,0.6,1.6-2.8,3.6-2.9c0.2-2.1-2.9-2.7,0-3.6c-0.3,1-0.9,1.2,0,2.2
	c2.6-0.2,3.4-2.7,4.4-3.6c1.2-0.8,2.4-1.5,3.6-2.2c0.2-0.4-0.9-1.3-0.7-1.5s1.3,0.7,2.2,0c0.3-0.2,0.5-1.9,0.7-2.2
	c1.2-1.5,3.7-1.6,2.9-4.4c2,0.3,2.6-1.8,3.6-2.9c0.5-0.6,2.9-2.1,2.9-2.2c0.1-0.3-0.8-1.4-0.7-1.5c0.6-0.4,1.2,1.3,2.2,0.7
	c1.9-3.2,6.4-3.8,10.2-5.1c1.6-1-0.9-1.8,0.7-2.2c1.5,1.5,4-0.2,4.4-2.2c-2.7,1.8-5-1.3-6.5-1.5c-3.2-0.4-6.4-0.1-9.5,0.7
	c-2.1-0.1-0.9-3.5-3.6-2.9c-1.9,1.4-4.5,3-4.4,4.4c-1.4-0.8-6.1,0.6-8.7-0.7c1-3.3-2.6-2.3-3.6-2.9c-1.3-0.8-0.9-2.7-2.2-2.9
	c-3.1-0.7-1.3,3.6-3.6,3.6c-1.3-1.6-3.4-2.5-3.6-5.1c-2.5,1.7-1.4-1.5-2.2-2.2c-0.1-0.1-2.5-1.3-2.9-1.5c-2.1-0.7-4.3-0.9-6.5-0.7
	c-2.4,0.3-1.5,2.2-3.6,2.9c0.3-0.1-3.3,0.1-4.4,0c-1.5-0.2-0.7-1.4-1.5-2.2c-0.2-0.2-1.2,0.1-1.5,0c-0.9-0.3-6.7-1.5-6.5-1.5
	c-0.9-0.1-1.8,0.8-2.2,0.7c-2.1-0.5-2.8-2.7-4.4-0.7c-0.4,0.5-0.9-0.8-0.7-0.7c-0.8,0-1.6-0.2-2.2-0.7c1.8-1.6,2.7,2.2,3.6-0.7
	c-0.3,0.8-0.5-2.7-0.7-3.6c-0.6-2.2-1.3-4.4-2.2-6.6c0.1,0.3-0.6,0.9-0.7,0c0,0.3,0.8-3.6,0-2.9h-3.6c-0.1,3.5,1.4,6.9,0,8
	c-6.8,2-23.7-0.6-32.8,1.5C492.2,60.6,492.8,63.9,492.3,67.2z"/>
<path id="Path_33" class="st0" d="M622.6,364.9c3.1,0,13.6,1.6,12.4-5.1c-1.2-0.3-0.4-1.5,0-2.2c0.5-0.9-1.1-1.8,1.5-2.2
	c-0.3-2.6-1.1-4.1,0.7-5.8c0.6,3.8,1.4,0.9,2.9,0c0.4-0.2,2.5-0.3,2.2,0c1.3-1.6-0.2-2.1,0-2.9c0.4-1.4,1.3-1.9,1.5-2.9
	c0.2-1.1-0.9-2.1,0-2.9c-1.5-2.3-3.2-0.2-5.1-1.5c-0.2-2.5-2.9-3.7-3.6-6.5c0,0.2,1.4-0.7,1.5-0.7c1.1-2.3-1.1-3.5-1.5-4.4
	c-0.6-1.3-0.3-3-0.7-3.6c-0.3-0.5-1.7-1-2.2-1.5c-1.5-1.3-3.2-3.8-5.8-2.9c0-2.3-2.7-2.2-3.6-2.9c-1.4-1-2.6-2.3-3.6-3.6
	c-3.9-4.9,1.7-10.3,2.2-16.7c-1.7-0.6-3.4-1.3-5.1-2.2c-2.2,0-1.7,2.6-4.4,2.2c-2-2.1-1.9-6.3-2.9-9.5c-1.4-0.1-1-1.3-2.2-2.2
	c-0.7-0.5-3-0.9-3.6-1.5s-0.2-1.6-0.7-2.2s-1.7-0.9-2.2-1.5c-1.4-1.3-2.8-2.3-3.6-3.6c-2.7-4.6-3.5-10.1-2.2-15.3
	c-2.3-1.1-3.6-4.4-6.5-5.1c-3-0.7-7.7,1.2-12.4,1.5c-4.8,0.3-10.2,0.5-13.1,0.7c-14.9,0.9-31.4,0.8-45.1,0.7c0,3.5,3.4,5.9,5.1,8.7
	c0.9,1.5,1.2,3.9,2.2,5.1c0.9,1,3.1,0.4,2.9,2.2c2.5,0.5,6.5-0.9,5.8,4.4c-1.8,0.6-2.5,2.3-3.6,3.6c0.2,4,4.6,3.6,4.4,8
	c1.2,1.2,3.3,1.6,4.4,2.9c1,20.6,1.2,42,1.5,63.3c15.9-0.5,40.8-1.2,59.7-2.2c6.7-0.3,24.2-2.8,26.2-1.5c1,0.6,1.2,3.3,2.2,4.4
	C627,361,622.7,361,622.6,364.9z"/>
<path id="Path_34" class="st0" d="M501,128.3c-1.1-2.9-0.6-5.8-1.5-8.7c-0.3-0.9-1.9-2-2.2-2.9c-0.4-1.4-0.6-2.9-0.7-4.4
	c-0.4-2.4-0.7-7.6-0.7-8c0-1,0.8-1.4,0.7-2.9c-0.2-2.6-1.5-6.8-1.5-8c0-0.3,1-1.6,0.7-2.9c-0.5-2.6-2.1-4.7-2.9-7.3
	c-1-3.3-1.8-7.6-1.5-9.5c0.2-1.1-0.7-1.5-0.7-2.2c-0.2-4.4,0.3-6.4,0-8.7c-0.2-1.7-0.4-3.1-0.7-5.1c-35.2-2.4-73.6-1.6-107.8-5.1
	c-3.3,22.6-3.6,48.4-5.8,72.1C416.6,126.8,459.4,130.2,501,128.3z"/>
<path id="Path_35" class="st0" d="M502.5,145.1c-0.2-2-2.7-1.7-3.6-2.9c-1.3-1.1-1.7-3.1-2.9-4.4c0.5-3.6,4.8-3.5,4.4-8
	c-42.9,0.2-84.2-1.2-123.8-4.4c-1.4,23.6-4.6,45.4-5.1,69.9c25.5,2.3,59,3.2,85.9,4.4c3.2,0.1,7.1-0.8,10.2,0c1.2,0.3,2.2,2,3.6,2.9
	c1.7,1,3.9,1.5,5.1,2.2c1.3-0.8,2.8-1.3,4.3-1.4c2.8-0.5,5.8,0.2,8-0.7c2.7,2.4,8.6,3.3,12.5,7.9l-0.2-2.9c-1.6-1.6,0.5-3.8,0.9-5
	c0.7-2.4,0.7-4.9,0-7.3c-0.9-2.1,0-2.4,0-3.6c0-1.5-1.9-2-1.5-3.6c0.7-1.8,3.2,1.4,2.9-2.2C501.5,173.7,502.9,158.5,502.5,145.1z"/>
<path id="Path_36" class="st0" d="M517.8,264.5c-0.3-0.7-0.5-1.4-0.7-2.2c-1.6-3-3.2-6.6-2.9-10.2c0.1-0.7,0.1-1.5,0-2.2
	c-0.1-0.8-0.4-1.5-0.7-2.2c0-1,0.9-1.3,0.7-2.9c-0.2-1.3-1.1-1.2-1.5-2.9c-0.2-0.7,0.7-2.6,0-3.6c-0.7-1.5-2.9-1.5-2.9-3.6
	c0.6-4.4-0.7-6.1-1.5-8c-0.7-1.7-0.8-3-1.5-3.6c-2.1-2.2-1.4-3.7-1.5-5.1c-0.1-1.2-2.9-3.4-1.5-5.1c-1.9-0.2-2.9-1.1-4.4-2.2
	c-1.1-0.9-2.3-2.8-3.6-3.6s-3.6,0-5.1-0.7c-1.8-0.9-0.9-2.7-2.9-2.9c-2.2,1.7-6.8,0.2-8.7,0.7c-1.5,0.4-1.5,2.9-3.6,2.2
	c-0.2-0.7-0.8-1.2-1.5-1.5c-3.1-1.4-5.7-3.8-8.7-4.4c-5.8-1.2-13.6,0.6-20.4,0c-23.5-1.9-52.1-1.6-73.5-4.4c-2,15-2.2,31.8-3.6,47.3
	c11.1,1.7,24.5,1.2,35.7,2.9c0.4,8.6-1.3,15.2-0.7,24c38.9,1.1,80.4,3.6,120.1,1.5C522.6,268.3,518.7,266,517.8,264.5z"/>
<path id="Path_37" class="st0" d="M532.3,278.3c-0.1-0.9-0.2-1.7-1.5-1.5c-0.3-3.2-1.5,1.4-3.6-0.7c-1.9-2.2-1.7-2.3-4.4-2.9
	c-5.3-1.2-13.3,0.3-21.8,0.7c-8,0.5-16,0.5-24,0c-24.8-2-50.9-0.6-74.3-2.9c-1.7,23.5-2.6,47.9-3.6,72.1c45.4,1.2,92.7,3.5,139,1.5
	c0.5-17.2-0.6-32.8-0.7-49.5c-1.1-3-5.9-2.4-5.1-7.3c-1.6,0.1-2.3-0.6-2.2-2.2c-1.8-1-2.3,2.9-2.9,0.7c1.8-0.2,1.1-2.4,1.5-3.6
	c0.4-1.3,0.9-2.5,1.5-3.6C530.6,278,528.6,277.2,532.3,278.3z"/>
<path id="Path_38" class="st0" d="M543.2,383.8c-0.9-12.6-5.6-24-4.4-37.9c-54.3,0.4-107.7-0.1-158.7-2.9c-0.6,3.3-0.6,5.6-1.3,10.4
	c11.9,0.5,28.8,1.8,39.9,2.7c6.6,0.6,13.8-2,18.2,2.2c-0.6,14.6-1.3,29.3-1.5,44.4c2.9,0.6,4.2,4.6,7.3,5.1c-0.2,0,0.3-0.7,0.7-0.7
	c1.9,0,2.9,1.8,4.4-1.5c0.2,2.9,3.9,2.4,2.9,6.5c4.6,0.2,9.5,2,14.6,3.6c1.2-1.7,4.2-1.6,7.3-1.5c-1.5,4.7,4.1,2.2,2.9,6.5
	c3.8,1.1,3.5-4.2,5.8-2.2c2.3,0.6,3.4,2.5,5.1,3.6c0.7-1.3,2.3-1.6,4.4-1.5c-0.2,1.7-1.6,3.1,0.7,3.6c-0.6-3.7,2.3-4,3.6-5.8
	c0.7,1.3,2.7,1.2,2.9,2.9c2.3,0.4,1.9-2.5,3.6-0.7c1.8,1.5,3.7,2.7,5.9,3.6c2.3-1.6,4.8-2.9,7.3-4.4c2.3,3,4-0.7,7.3-0.7
	c1.5,0.4,2.1,1.8,4.4,1.5c1.9,0.2,0.6-2.8,2.9-2.2c4.8,2.2,8,6,13.8,7.3C542.5,410.7,544.2,397.3,543.2,383.8z"/>
<path id="Path_39" class="st0" d="M190.2,59.2c0.2,1.3-0.6,1.7-0.7,2.9c-0.1,1.5,0.8,2.1,1.5,2.9c0.5,0.7,0.3,1.6,0.7,2.2
	c1,1.2,2.1,1.7,2.9,2.9c1.3,2.1,2.5,4.3,3.6,6.5c0.3,0.5,1.6,1.7,1.5,2.2c-0.4,1.8-0.4,0.7,0.7,2.2c0.4,0.6,0.3,1.6,0.7,2.2
	c1,1.1,3.4-0.5,1.5,1.5c1,1.4,5.1-0.2,5.1,2.2c-1.6,6-6,10.3-4.4,17.5c-1,2-1.9,1.1-2.9,2.9c0.2-0.4,0.7,0.4,0.7,0.7
	c0,1.4-2.4,1.5-1.5,3.6c3,1.3,2.6,1.9,5.1,1.5c1.8-0.3,3-3.4,5.8-2.9c2.1,3,1.1,7.5,2.2,10.9c0.8,2.5,2.6,3.7,2.9,5.8
	c0.6,2.6-1.6,3.5,0,5.1c5.8,0.6,5,7.9,5.8,11.6c2-0.7,2.8-1.5,5.1-1.5c1.6,0,3,0.9,4.4,0.7c1.4-0.1,2.1-1.5,3.6-1.5
	c3.1,0.1,6.4,1.3,9.5,2.2c3.5,0.3,1.9-4.4,5.8-3.6c2.2,0.7,0.6,5.2,3.6,5.1c0.3-3.8,0.2-8.1,2.2-10.2c8.4-0.3,17,1.7,25.5,2.9
	c30.5,4.2,61.8,6.8,92.5,9.5c3.5-30.5,4.3-63.7,7.3-94.6c-4.1-0.6-8.6-0.5-13.1-0.7c-7.5-0.5-15-1.5-22.6-2.2
	c-22.5-2.1-45.8-4.8-67.7-8c-18.2-2.7-36.6-5.8-53.9-8.7c-10.4-1.8-23.2-5-33.5-5.8c-1,7.6-2.4,15.1-4.4,22.6
	C187.5,52.7,189.7,55.1,190.2,59.2z"/>
<path id="Path_40" class="st0" d="M359.8,147.3c-26.2-2-54.3-5.3-79.3-8.7c-7.9-1.1-18.7-2.5-23.3-2.9c-3.2,2.9-2.3,7.9-2.9,12.4
	c-0.5,3.7-1.7,7.3-2.2,10.9c-3.5,24.2-6.6,48.7-10.2,70.6c39.8,6.3,81.5,10.7,124.5,13.8c3.2-31,4.1-64.3,7.3-95.4
	C369,148.2,364.4,147.6,359.8,147.3z"/>
<path id="Path_41" class="st0" d="M397.6,343.1c2.2-31.6,3-64.4,5.1-96.1c-42.5-2.6-83.9-6.4-124.5-10.9c-0.9,0.1-0.8,1.2-0.7,2.2
	c-3.7,26.1-7.6,55.5-10.9,81.5c-0.6,3.9-0.8,7.7-0.7,11.6C309.2,336.3,353.1,340.2,397.6,343.1z"/>
<path id="Path_42" class="st0" d="M297.9,456.6c23.6,2.2,47.2,4.3,71.3,5.8c1.9-8.2,2.3-16.8,2.9-25.5c1.3-17.9,2.5-35.8,3.6-53.9
	c0.6-9.2,0.4-18.7,1.5-27.7l1.5-13.1c-39.6-1.6-76.3-6.2-113.6-10.2c-5.2,45.3-11.3,89.6-16.7,134.7c4.4,1.4,10.5,1.1,15.3,2.2
	c1.8-2.8,0.8-8.4,2.9-10.9c9.9,1.8,20.9,2.4,31.3,3.6C299.8,461.4,295.4,457.6,297.9,456.6z"/>
<path id="Path_43" class="st0" d="M205.5,323.5c-1.2-0.2-2.5,0.2-3.6,0c-10.5-1.7-20.5-4.1-30.6-5.8c-0.7,4-1.5,10.2-2.2,13.8
	c-0.7,3.8-1.1,4.7-2.2,5.8c-1.3,1.5-1.7,4.8-3.6,2.9c-2.4,0.7-1-2.4-2.2-2.9c-3.5-0.2-3.2-1.9-6.5-0.7c-0.6,7.3-0.9,14.5-0.7,21.8
	c-5.1,5.1,0.6,10.7,0.7,18.2c2.2,1.6,3.6,2.3,3.6,4.4c-2.8,4.6-6.1,3.2-8.7,7.3c-0.8,1.3-0.1,3.8-0.7,5.8c-0.5,1.5-3.9,5.6-3.6,6.5
	c0,0,1.9,1.1,1.5,1.5s-3.4-2.6-3.6-0.7c-0.6,2.4,0.2,4.1-0.7,7.3c1.7,0.3,2,1.4,2.9,2.2c0.9,0.8,2.8,1.9,2.9,2.9c0,0-1.8-1-2.2-0.7
	c-0.7,0.5,0.4,3.7-0.7,4.4c-0.3-3.4-1.4-0.1-1.5,0c-0.9,0.9-3.7-0.7-4.4,0c0.3,2.3-2,1.9-2.2,3.6c1.9,1.8,4.4,2.5,6.5,3.6
	c1.3,0.7,5.2,3.8,5.8,3.6c0.2,0,0-1.2,0.7-0.7c0.5,0.3-0.8,0.9-0.7,0.7c-0.2,0.9,1,0.4,1.5,0.7c3,2.1,6.2,4.1,9.5,5.8
	c0.7,0.4,1.4,0.3,2.2,0.7c1.3,0.8,2.3,2.4,3.6,2.9c1.9,0.8,3-0.3,3.6,0c0.3,0.1-0.8,1.4-0.7,1.5c0.7,1.4,3.7,0,3.6,0
	c0.5,0.3-0.8,0.9-0.7,0.7c-0.2,1,1.1,0.3,1.5,0.7c2.2,2,4.6,3.7,7.3,5.1c3.2,2,6.7,3.7,10.2,5.1c0.4,0.1-0.2,0.9,0.7,0.7
	c0.2,0,0-1.2,0.7-0.7c0.3,0.2-0.9,1.3-0.7,1.5c0.6,0.6,3.6,1.4,5.1,2.2c1.8,0.9,3.6,3.2,5.1,1.5c-1.7,3.1,3.9,3.1,5.1,3.6
	c-0.7-0.3-0.6,1.2,0,1.5c13.9,1.2,26.4,3.7,40,5.1c6.4-44.3,11.3-90.1,17.5-134.7C244.5,329.5,222.8,326.2,205.5,323.5z"/>
<path id="Path_44" class="st0" d="M154.5,335.8c1.7-1.7,3.6,0.1,5.8,0c2.4,0.3,1.5,3.9,4.4,3.6c3-3.5,2.9-8.2,3.6-12.4
	c0.8-4.4,2.1-8.7,2.9-13.1c1.7-9,2.5-18.5,4.4-27.7c5.9-28.7,10.6-59.4,16-88.1c-34.9-6.6-69.4-13.6-102.6-21.8
	c-3.8,17.1-9,34.6-13.1,51.7c-0.6,2.6-0.7,6.3-1.5,9.5c-0.3,1.3-1.2,2.4-1.5,3.6c-1.5,6.3,0.2,7.2,3.6,12.4c2.1,3.2,5.2,6.5,6.5,8.7
	c0.4,0.7,0.3,1.5,0.7,2.2c0.8,1.2,2.2,1.8,2.9,2.9c0.4,0.6,0.4,1.6,0.7,2.2c0.3,0.6,1.1,1,1.5,1.5c1.7,2.4,2.6,4.1,3.6,5.8
	c2.8,4.5,6.1,8.6,8.7,12.4c16.8,24.3,34.2,50.7,49.5,72.1c-1.1-2.2,1.8-2.5,2.2-4.4c0.4-2.2-0.9-4.1-0.7-6.5c0.2-2.7,0.5-5.4,0.7-8
	c0.1-1.2,0-1.8,0-2.9C153.1,338,152.6,336.2,154.5,335.8z"/>
<path id="Path_45" class="st0" d="M276.8,235.4c-12.6-1-23.7-3.5-36.4-4.4c1.7-8.2,2.9-16.4,3.6-24.7c-18.1-1.8-34.5-5.3-51.7-8
	c-6.7,39.9-14,79.2-21.1,118.7c30.7,5,60.9,10.4,93.2,13.8C268.9,299.3,272.4,266.8,276.8,235.4z"/>
<path id="Path_46" class="st0" d="M172.8,34.8c-0.3,1.2-0.6,2.4-0.7,3.6c-0.4,3.9-2.3,7-2.9,12.4c-1,8.7-4.2,16.1-5.6,23.8
	c-0.4,2.1,0.5,5.5-0.3,7.6c-0.2,0.5-0.5,1-0.9,1.3c-0.1,1.4,0,2.8,0.2,4.1c0.7,2.7-0.1,3,0.7,4.8l-0.7,1.5c0.9,2.2,1.5,2.4,2.5,3.9
	c1.1,1.5,2.9,3.2,2.9,5.1c0.1,2.7-2.5,3.7-4.6,6.8c-0.9,1.3-2.1,4.5-2.9,5.8c-0.9,1.5-2.9,2.5-1.5,4.8c-4.1,3.2-9,4.2-8.9,11.7
	c-0.1,2.3,2.7,1.9,3.4,3.4c-0.4,1.8-0.3,4.3-1,6.2c-0.7,1.8-2.4,3.6-2.9,5.9c-1.4,6.6-2.2,13.6-3.6,20.6c-1.3,6.7-3,12.1-4.2,19.8
	l102.6,18l8.8-59.1c-3,0.1-1-4.6-3.2-5.3c-4-0.8-2.3,3.5-5.8,3.2c-2.9-1.1-5.9-1.7-9-1.9c-1.6,0-3.7,1.6-5.1,1.7
	c-1.4,0.2-2.3-0.5-3.9-0.5c-1.8,0-3.5,0.4-5.1,1.2c-1.3-6,1.2-11.1-6.1-11.9c-1.7-1.6,0.1-2.9-0.5-5.6c-0.3-2.2-1.9-3-2.7-5.6
	c-1.2-3.9,0.3-7.5-1.7-10.4c-2.8-0.5-3.1,2.1-4.9,2.4c-2.5,0.5-3,0.1-6.1-1.2c-1-2.2-0.2-2.4-0.2-3.9c0-0.3,0.5-2.3,0.2-1.8
	c1-1.9,2-1,2.9-3c-1.6-7.4,2.4-10.4,4.1-16.6c0-2.5-3.8,0.1-4.8-1.4c1.9-2-0.8-1.2-1.8-2.4c-0.5-0.6-0.3-1.7-0.7-2.3
	c-1.1-1.5-1.1-0.4-0.7-2.3c0.1-0.5-1.2-1.8-1.5-2.3c-1.1-2.3-2.3-4.6-3.7-6.8c-0.8-1.3-1.9-1.8-2.9-3c-0.5-0.6-0.2-1.6-0.7-2.3
	c-0.6-0.9-1.6-1.5-1.5-3c0.1-1.3,0.9-1.7,0.7-3c-0.5-4.2-2.1-6.5-3.8-9.7c1.8-7.3,3.1-14.6,3.9-22.1l-13.3-2.9
	c-1.3,2.5-1,2.5-1.7,6.3C173.8,30.3,173,34.4,172.8,34.8z"/>
<path id="Path_47" class="st0" d="M144.3,411.5c-0.4-2-3.7-1.1-3.6-3.6c1.5-2.5,1-3.2,0.7-6.5c1.5-0.5,2.8-1.5,3.6-2.9
	c0.4-0.5,1.2-1,1.5-1.5c1.2-2.2,0.5-6.1,1.5-8c0.9-1.7,2.2-3.1,3.6-4.4c1.3-1.1,4.5-1,5.1-3.6c-0.1-2.8-3-2.9-3.6-5.1
	c1.9-4-4.5-8.6-2.2-13.1c-5.9-7.2-11.4-15.9-16-23.3c-0.3-0.4-1.2-1-1.5-1.5c-0.8-1.2-1.3-3.1-2.2-4.4c-0.7-1.1-2.1-1.8-2.9-2.9
	c-0.8-1.1-1.3-3.1-2.2-4.4c-0.7-1.1-2.2-1.8-2.9-2.9c-0.9-1.3-1.3-3.1-2.2-4.4c-0.7-1.1-2.2-1.8-2.9-2.9c-0.9-1.3-1.3-3.1-2.2-4.4
	c-14.8-22.1-30.6-43.4-45.1-65.5c3-11.6,6-23.2,8.7-34.9c2.8-11.7,6.1-23.4,8-35.7c-24.7-4.9-46.8-12.4-70.6-18.2
	c-2.3,4.6,0.1,10.4-1.5,14.6c-0.8,2.1-2.9,3.1-3.6,5.1c-0.5,1.3,0.3,3.4,0,4.4c-0.3,1.2-3.5,2.4-1.5,3.6c-4.7,1.5-7.8,6-7.3,10.9
	c0.2,1.9,2.2,3.6,2.9,5.1c1.4,2.8,2.4,5.7,2.9,8.7c0.8,5.9-2.2,7-2.9,10.9c-0.2,1.2,0.8,2.9,0.7,5.1c-0.1,2.2-1.6,4.1-1.5,5.1
	c0.3,2.2,2.5,4.3,3.6,6.5c0.3,0.6-0.2,1.6,0,2.2c0.6,1.3,1.3,2.5,2.2,3.7c0.5,0.6,1.1,0.6,1.5,1.5c1.2,3,2,6.2,2.2,9.5
	c-1,0-0.7-1.3-1.5-1.5c-1.1,2,1,3,2.2,4.4c1.3,1.6,2.7,3.1,4.4,4.4c0.8-2.2,0-5.8,2.2-6.5c3.5-0.4,3.4,2.9,5.8,3.6
	c2.4-2.2,5.5,2.7,8.7,0c-1.7,2.4,4.9,1.6,3.6,5.8c-1.6-0.6-1.8-2.5-2.9-3.6c-1.7,0-2.1,1.3-4.4,0.7c-1.2-2.1-3.8-1.6-4.4-1.5
	c-1.1,0.2-1.5-0.7-2.2-0.7c-1.4-0.1-2.2-0.4-3.6,0c0.2,3.1,1.7,6,2.2,8c0.6,2.1,0.8,4.3,0.7,6.5c-3.1-0.6-2.9-4.4-5.8-5.1h-0.7
	l0.7-2.9c-0.5,0.9-0.8,1.9-0.7,2.9h-0.7c-1.1,0.6,0.9,3.6,0.7,5.1c-0.1,1.5-1.7,2.2-1.5,3.6c0.5,2.8,2.5,4.2,3.6,6.5
	c0.5,1.4,4.1-0.2,4.4,1.5c0.7,2.1,1,4.3,0.7,6.5c-2.2,0-1.7,2.6-4.4,2.2c-1.1,5.9,0.3,7.7,2.2,10.9c0.4,0.7,0.2,1.8,0.7,2.9
	s1.9,1.3,2.2,2.2c1,2.4,0.4,4.9,1.5,7.3c0.5,1.2,2.7,2.5,2.9,2.9c0.2,0.5-0.3,1.7,0,2.2c1.2,1.8,3.4,2.8,3.6,5.1
	c0.1,1.8-1.1,2.3-1.5,3.6c1.4,1.5,4.3,1.5,4.4,4.4c-2.1,3.2-1.4,9.3-3.6,12.4c2.4-0.1,2.9,3.5,4.4,3.6c3.9,0.5,8.2,0.7,10.2,3.6
	c4.8-0.2,7.5,2.4,9.5,5.8c0.7,1.1,0.5,2.7,1.5,3.6c3.4,3.5,6.7,3.5,12.4,5.1c0.4,2.6,1.1,4.7,0.7,8c1.6-0.8,3.5-0.8,5.1,0
	c3.8,7.4,11.3,10.6,12.4,19.7c0.4,3.3-1,6.7-0.7,8.7c0.2,1.5,1.8-0.2,2.2,2.2c0,0-1.5,1.9-0.7,2.9c17.1,1.5,36.7,3.8,51.7,5.1
	C142.8,414.3,145.1,414.6,144.3,411.5z"/>
<path id="Path_48" class="st0" d="M16.2,155.3c6.7,3.7,14.5,4.2,21.8,6.5c0.4,0.1,1.2,0.5,2.2,0.7c32,8.8,65.8,18.1,100.3,24.6
	c1.1-6.5,3-13,4.4-19.7c1.4-6.8,2.2-13.9,3.6-20.4c0.5-2.2,2.2-3.9,2.9-5.8c0.8-1.9,0.5-3.8,0.9-5.6c-0.7-1.5-3.8-0.6-3.6-2.9
	c-0.1-7.4,4.7-9.9,8.7-13.1c-1.3-2.3,1.3-2.9,2.2-4.4c0.8-1.3,1.3-3,2.2-4.4c2.1-3,5.2-5.4,5.1-8c-0.1-1.9-1.8-2.8-2.9-4.4
	c-1.2-1.6-2.2-3.3-2.9-5.1c-5.7-0.7-10.7-1.8-16-2.9c-5-1-10.1-3-15.3-3.6c-1.6-0.2-3.3,0.1-5.1,0c-1.8-0.1-4.1-0.7-5.8-0.7
	c-5.1,0-10.2,1.6-15.3,1.5c-1.5,0-3-1.3-4.4-1.5c-3-0.3-5.9,1.3-8.7,0c-2.6-2.8-6.3-4.4-10.2-4.4c-1.6,0-2.2,1.2-3.6,1.5
	c-1.7,0.3-3.4,0.3-5.1,0c-1-0.2-0.8-1-1.5-1.5c-0.9-0.6-2-0.2-2.9-0.7c-5.2-3.5-0.8-5.8-2.2-12.4c-0.1-0.3-1.3-0.5-0.7-1.5
	c-1.6-1.3-3-2.9-6.5-2.2c0.2-2.4-3.9-4.3-5.8-2.2c-2.4,0.9-0.6-2.4-2.9-1.5c0,3-1.5,5.3-2.2,8c-0.2,0.9,0.3,2.4,0,3.6
	c-0.4,1.5-1.5,1.6-1.5,2.9c0,1,1.3,1.2,1.5,2.2c-0.8-0.8-2-0.8-2.8-0.1L44,77.9c-0.9,8.7-8,14.6-7.3,22.6c-3.7,2.8-3.5,9.6-6.5,13.1
	c-0.5,2.2,1.3,2.1,0.7,4.4c-3.2-1-2.6,1.7-4.4,2.2c-1.4,2.7,2,3.4-0.7,5.8c-0.7-4.3-2,2.8-3.6,0c-0.5,5.5-7,8.4-3.6,15.3
	C15.8,144.1,14.4,150.5,16.2,155.3z"/>
<path class="st0" d="M159.1,20.4c-0.8-0.2-2-1.3-2.9-1.5c-4.4-1-8.7-1.1-13.1-2.2c-4.1-1-7.9-2.1-12.4-2.9c-1.6-0.3-3.5-1.8-5.1-2.2
	c-1.1-0.3-2.5,0.3-3.6,0c-1.7-0.4-3.4-2-5.1-2.2c-1.1-0.2-2.5,0.8-2.9,0.7c-1.6-0.4-3.5-2.4-5.8-2.9c-1.2-0.2-2.5,0.3-3.6,0
	c-2.1-0.6-4.7-2.2-7.3-2.9c-2.9-0.7-5.8-1.2-8.7-1.5c-1-0.1-4.1-2.6-2.9,0.7C85.9,3.3,86,3.2,86.2,3c-0.2,0.3-0.9,1.4,0.3,1.9
	c-0.3-0.1,1.5-1.4,1.5,0c-1.2-0.2-2,1-0.7,1.5c1.1-1.5-0.2,0.4,0,0.7c0.3,0.6,1.3-0.3,1.5,0.7c0.5,3.1-1.1,6.8-2.2,8.7
	c2.7,1.7,0.3,4.4,0.7,6.5c0.6,3.1,4.8,5.2,2.2,6.5c1.3-1.3-0.2-2.3-1.5-2.9c-0.3,1.6-2.3,1.9-2.9,2.9c-0.4,0.7,0.5,2.2,0,2.9
	s-1.2-0.2-1.5,0.7c0.1-0.4,0.8,1.5,0.7,2.2c0,1.4-1.3,3-0.7,4.4c-1.5,0.5-3,2.7-4.4,2.9c0,0-0.1-1.2-0.7-0.7
	c-1.6,1.1-1.9,3.3-4.4,4.4c1-1.6-0.7-1.8-0.7-2.9c-0.3,0.8-0.8,1.6-1.5,2.2c-1.9-0.5-1.4-3.4-2.9-4.4c3-0.2,4.2-2.3,5.9-3.8
	c0.7,0.5,1.1,1.1,1.6,1.8c0.5-1.6,3.8-0.5,2.9-3.6c-1.9,0.4-2.6-0.3-2.2-2.2L77,33.2c0.9,0.1,1.9-0.8,1.9-1.5c0.6,0.8,1.7,1.1,1.9,0
	c-1.2-0.1-0.6-1.9-2.2-1.5c-0.1,0.3-0.1,0.6,0,0.9c-0.1-0.1-0.2-0.1-0.4-0.1c-0.2,0.9-1,1.2-1.4,2l-0.3-0.3
	c-0.9,2.3-1.8-0.1-2.9,1.5c1.7,0.7-2.4,0.1-2.2,2.9c1.4-0.3,2.4-0.2,3.1,0.2c-1.6,0.4-3.6,0.3-4.8,1.2c2.1-1.1-1.1-1.7-0.7-2.9
	c0.5-1.6,5.6-4.4,6.5-5.1c1-1.7-1.9-2.7,0-2.9c1.6,1.5,1.3-1.6,4.4,0v-4.3H77c2-2.1-3.1-1.1-2.2-4.4c-2.5,1.7-3.4-0.2-4.4-0.7
	c-1.2-0.6-3.3-0.3-4.4-0.7c-0.3-0.1-0.4-1.3-0.7-1.5c-3.3-1.3-6.3-0.6-6.5-3.6c-1.4-0.2-1.4,1-2.2,1.5c1.3-2.8-0.3-2.7-2.2-4.4
	c-0.4-0.4-0.8-0.9-1.1-1.4c0,0.4-1.7,1.3-1.9,2.1c0.1,0.8,0.4,1.5,0.7,2.2c-0.2,0.2-1.5-0.8-1.5-0.7c-0.2,1.9-0.2,3.9,0,5.8
	c0,1.4,0.9,1.6,1.3,2.6c1.1,3,0.3,7,0,8.7c-0.6,4.2,1.2,7.8,0,10.9c2.1,0.8,2.9,2.9,5.1,3.6c-1.8,1.3-6,0.3-5.8,3.6
	c0.9,1.9,3.6-0.7,3.6,0.7C52.6,48,57,48,55.5,50.3c-1.4,1.2-0.9-0.1-2.9,0c-0.2,1.4,1,1.4,1.5,2.2c-3.5,0.1-1,1.7-1.5,4.4v1.5
	c1.8-0.8,1.7,1.1,2.2,1.5s1.7-0.2,2.2,0c1.4,0.4,1.5,2.4,2.2,2.9c-0.3-0.3,1.3-0.8,0,0.7c4.5-1.9,2.7,1.3,5.8,2.9
	c0.2,0.1,0.2-1.1,0.7,0c-0.2-0.5-0.1,1.1,0,1.5c1,3.6-0.3,6.4,0,10.9c2.5,0.5,4.9,3.4,6.5,3.6c0.8,0.1,1.7-1.5,3.6-1.5
	c0.4,0,0.4,1,1.5,0.7c0.5-0.1,1.4-1.4,2.2-1.5c3.5-0.1,5.2,2.3,9.5,2.2c0,1.5,2,0.9,1.5,2.9c2.9-0.3,5.1,0.4,7.3,0
	c0.2,0,0.8-1.3,1.5-1.5c-0.1,0,1.4,1.5,1.5,0c-0.4-0.1-0.7-0.5-0.6-0.9c0.1-0.3,0.3-0.5,0.6-0.6c-0.1,2,1.2,1.5,0,2.9
	c1.4-0.6,1.7,1.3,2.2,1.5c1.3,0.3,8-1.4,9.5-1.5c1.7-0.1,3.2,0.8,4.4,0.7c0,0,0.3-1.4,0.7-1.5c-0.1,0,4.7,0.5,5.8,0.7
	c2.3,0.4,2.7-0.3,5.1,0c1.3,0.1,3,1.4,4.4,1.5c0.8,0,1.8-0.8,2.2-0.7c0.2,0,0.5,1.4,0.7,1.5c2.9,1,7,0.8,10.2,1.5
	c5.4,1.2,10.6,3.8,16,2.9c-0.8-1.8,0.7-3.1,0-5.8c-0.2-0.8-1.5-1.4-1.5-2.2c0.6-0.7,1.1-1.4,1.5-2.2c0.8-2.1,0.4-3.8,0.7-5.8
	c1.4-7.6,4.8-16.8,5.8-25.5c0.7-5.3,2.5-8.5,2.9-12.4c0.1-1.1-0.8-2.5-0.7-2.9c0-0.1,1.4-0.5,1.5-0.7c0.3-1,0.5-1.9,0.7-2.9
	c0.7-3.8,0.1-5.5,1.5-8C169.7,21.4,164.4,21.6,159.1,20.4z"/>
<path id="Path_54" class="st0" d="M996.6,76.5c-0.5,2.5-2.4,0.7-2.9-0.7c-0.5-2,1.4-1.5,1.5-2.9c-1.7-0.5-2-2.4-3.6-2.9
	c-0.7,0.7-1.4,1.5-2.2,2.2c-2.2-2.7-4.4-5.3-4.4-10.2c-3,0.1-5.9,0.1-7.3-1.5c-0.2-2.8-1-5.5-2.2-8c-2.2-5.9-3.5-11.2-5.1-16
	c-0.9-2.6-1.6-5.9-2.2-6.5c-0.5-0.6-2.3-0.3-2.9-0.7c-0.6-0.4-0.8-1.9-1.5-2.2c-1.7-0.8-3.8-0.5-5.1-0.7c-2.9,2.4-5.5,5.1-9.5,6.5
	c-0.6-1.4-2.1-1.6-2.9-2.9c-0.5-0.9,0.5-2.7-1.5-2.2c-1.7-0.4-1.8,1.9-2.2,2.9s-1.1,2.6-1.5,3.6s-1,2.3-1.5,3.6
	c-0.5,1.7-0.2,3.7-0.7,5.1c-0.7,2-2,3-2.2,5.1c-0.2,2.4,0.9,5,0.7,7.3c-0.1,1-1.2,0.8-1.5,1.5c-0.3,1.2-0.6,2.4-0.7,3.6
	c-0.2,2.9,2.1,5.1,2.2,8c0,1.6-2.7,2.4-0.7,4.4c-1.9,1.1-3.2,3-3.6,5.1c-0.3,2.3,1,2.8,1.5,4.4c-2.7-0.6-2,2.2-3.6,2.9
	c-1,0.4-2.8-0.5-2.9,0.7c2.7,5.5,4.3,11.9,5.8,17.5c0.2,1,0.4,2,0.7,2.9c0.3,0.7,1.9,1.3,2.2,2.2c-0.1-0.3-0.7,0.4-0.7,0.7
	c0,0.7,0.7,0.6,0.7,0.7c0.7,2.8,0.6,4.7,1.5,7.3c1.2,3.7,4.3,7.3,3.6,11.6c1.2,1.2,1.9,2.9,4.4,2.9c-0.2,1.9,0.3,3.1,2.2,2.9
	c1.1-0.7-0.1-3.3,0.7-5.8c0.3-1,1.9-1.8,2.2-2.9c0.3-1.3-1-1.6-0.7-2.9c0.1-0.5,1.2-1,1.5-2.2s-0.3-3.1,0-4.4c0.6-2.2,3-3.8,3.6-3.6
	c0.3,0.1-0.3,2.7,0.7,2.2c1.5-2.7-1.2-5,0.7-7.3c1,3.8,2.9,0.2,5.1-0.7c-0.1,1-0.1,5.3,0.7,2.9c-1.1-4,3.6-2.2,5.1-3.6
	c-0.7-3,0.7-5.5,0.7-8c0-1.4-1.1-2.4-0.7-3.6c0.1-0.2,1.4,0.2,1.5,0c0.5-0.8-0.7-4.3,1.5-2.9c2.2,1-0.1,6.4,4.4,5.1v-6
	c2.1,2.4,2.5,0.5,3.6-1.5c0.7,1.2,3.1,0.8,4.4,1.5c-1.1-2.6,1.6-1.7,2.2-2.9c-0.1,0.1-1.2-2.7,0.7-2.9c1,0,0.7,1.3,1.5,1.5
	c2-1.5,3.5-3.5,4.4-5.8C994.6,83.2,998.2,78,996.6,76.5z"/>
<path id="Path_55" class="st0" d="M892.7,310.3c0.2-0.6-0.7-2.5-0.7-2.9c0.1,0.5-0.7,0.9-0.7,0.7c-0.2-1.5,1.5-1.7,0-2.9
	c-2.7-0.7-3.9,1.3-5.1,0c-0.1,3,2.5,2.2,2.9,2.9c-1.5,1.5-3.2-1-5.1-1.5c-1.1,0.6-1.1,2.3-2.9,2.2c-0.6-2.3-0.6-1.5,0.7-2.9
	c-2.3-1.8-3.9,1.4-5.1-1.5c0.7,0,0.9-0.6,1.5-0.7c-1.8,1.8,1.1,1.3,1.5,0.7c-1.1-0.6-2.3-1.1-2.2-2.9c-2,0-4.4,0.1-5.8,0
	c-0.5-0.1-1-0.1-1.5-0.1v0.1c0,0-0.1-0.1,0-0.1c0-0.3,0.2-1.3,0-1.4c-1.5-0.4-3.2,0.9-5.1-0.7c2.2-1,6.2-1.8,7.3,0
	c0.1-0.9-0.1-2.1,0.7-2.2c0.8,1.3,2.2,3,4.4,2.7l2.5,1.7c1.5,1.3,2.5,2.5,4.7,1.5c1.1-2.9-2.1-3.4-3.6-3.3l-2.1-1.2l-1.6-0.6
	c-1.4-2.3-4.5-2.8-5.8-5.1c1.5,1.5,1.4-0.3,2.9-0.7c0.7,2.8,2.7,2.2,3.6,2.9c-0.4-0.3-0.8,0.3-0.7,0.7c0.3,1.7,2.7-1.3,2.9,1.5
	c1.5-1.5-0.3-1.4-0.7-2.9c0.7,0,0.9-0.6,1.5-0.7l-0.7-1.5c0-0.9-0.9-1-0.7-2.2h-2.9c-0.3-2.5-2.2-2-3.6-2.9
	c-1.8-1.2-3.9-4.2-5.1-5.1c0.3,0.2-1.3,0.8,0-0.7c-3.1-0.3-0.9,2-2.2,2.2c-1.5-1.5,0.3-1.4,0.7-2.9c-1.3-0.4-3-0.4-3.6-1.5
	c1-0.9,2.6-0.9,3.6,0l0.9-0.4h0.6c0.2,1.7,2.5,1.3,2.2,3.6c2.5-1.7,1.7,1,2.9,0.7c2.3-0.4,1,1.7,4.4,3.6c-1-0.6,2.6,0.6,2.9,0.7
	c0.3-3-0.7-4.7-1.5-6.5c-4.4,1.1-4.7-6.5-10.3-3.5l-1.3,0.5c-0.2-1.7-2.5-0.9-2.2-3.2c-2.7,0.9-5.7,3.6-7.3,0c1.4-1.8,0.5-5.8,1.5-8
	c1.5,1.5,1.4-0.3,2.9-0.7c0-1.7-1.3-2.1-0.7-4.4c-2.2-1.9-3.6,1.2-4.4,0c0.8-0.2,1.1-0.8,1.5-1.5c-2.7-0.4-6.7-0.1-7.3-4.4
	c-0.3,1.1-0.9,0.1,0-0.7c-3.7,1.3,0-0.5-2.9-0.7c-1.4,1.2-1.2,4.2-2.9,5.1c0-1.9-1.9-0.9-2.9-1.5c0.3,0.2,1.1-0.5,0.7-0.7
	c-0.8-0.6-4.1-1.3-6.5-2.9c-1.3,1.9,0.1,4.7-0.7,7.3c-0.1,0.2-1.3,0.5-1.5,0.7c-0.5,0.9-0.5,3.3-0.7,3.6c-0.6,0.8-2.3,0.7-2.9,1.5
	c-1.4,1.8-0.8,5.1-4.4,3.6c0.1,2,1.4,2.5-0.7,1.5c0.4,4.3-0.8,6.9-2.9,8.7c-3.6,0.7-4.9-0.9-6.5-2.2c-0.3,1.3,0,2.6,0.7,3.6
	c-3.5,0-2.9,7.9-2.9,8s-1.4-0.2-1.5,0c-0.4,0.7,0.2,2.1,0,2.9c-0.4,1-0.9,2-1.5,2.9c0.6-1.6-1.4,1.3-1.5,1.5
	c-0.4,0.6-0.7,1.4-0.7,2.2c0,2.7,1.3,2.1,1.5,3.6c-0.5,0-1,0-1.5,0c-0.6,0.9,0.6,2.6,1.5,3.6c-1.7-1.7-3.4,0.7-5.1,1.5
	c-0.6,0.3-1.6-0.3-2.2,0c-1.4,0.7-2,3.6-4.4,2.2c-1,3.4-3,3.1-4.4,3.6c-1.8,0.9-4,0.9-5.8,0c-0.2,2-2.3,2.1-2.9,3.6
	c-0.8-1.5-2.4-0.7-3.6-0.7c-2.1-0.1-0.2-0.9-0.7-1.5c0.2,0.2-4.3-1-4.4-3.6c-3.2-0.3-1.9,3.9-4.4,4.4l-1.5,1.5
	c-2.5,0.9-3.4,3.4-5.8,4.4c0,0.8,0.2,1.6,0.7,2.2c-4.3,0.5-2.8,5.7-5.1,6.5c0-0.7,0.6-0.9,0.7-1.5c-2.8,0.4-2.6,3.7-5.1,4.4l0.4,0.7
	c-1,0.3-2,0.6-2.9,1.1l2.5-0.4c3.1,0.5,5-0.5,6.5-0.7c7.9-1.2,19-2.1,23.3-4.4c-0.3,0.1-0.9-0.7,0-0.7c0.6,0.7,1.3,1.2,2.2,1.5
	c2.8,0.3,7.5-0.4,10.2-0.7c10.9-1.5,20.9-4.5,31.3-5.8c3.2-0.4,4.1-1.1,5.8-1.5c5.1-1,8.3-0.7,12.4-1.5c9-1.7,18.7-4.3,26.2-5.8
	c2.2-0.4,4.9-0.2,6.5-0.7c0.5-0.2,0.7-1.3,1.5-1.5c0.4,0.4,0.9,0.7,1.5,0.7c1.3-0.1,2.3-1.1,3.6-1.5c2.2-0.6,3,0,4.4-1.5
	c-0.2,0.2-1-0.3-0.7-0.7C891.4,310.6,892.4,311.2,892.7,310.3z"/>
<path class="st0" d="M900,266.6c-2.6-2.9-8.3-0.1-11.7,0.7c-2.9-7.8-4.6-17.5-7.2-25.7l-0.1-0.5c0.3-1.8-1.3-1.6-0.7-3.6
	c-5.5,0.7-12.2,2.8-16,3.6c-5.5,1.2-13,2.8-17.5,3.6l-32.6,6.1l1.9,11.2c0.6-1.7,1.9-2.1,2.8-2.8c0.8-0.9,1.4-2,1.8-3.2
	c0.4-0.9,1.1-1.2,2.4-1.3c1.3-0.1,2.4-1.9,2.9-3s0.7-1.3,1.2-1.5c0.5-0.1,2.4,1.2,3.5,1.5c1.1,0.2,2.3-2.3,2.9-3
	c0.6-0.7,2.4-0.5,2.9-1.5s2.2-0.4,3.4-0.2c1.5,0.1,3,0.5,4.4,1.1c0.2,3,2.1,3.3,3.2,5.5c3.6-0.4,5.6,0.7,5.1,4.4
	c1,1.1,2.5-0.4,3.6,0c1.5,0.5,2.1,1.9,3.6,2.2c1.6,0.3,3.6-1.9,4.4,0.7c0.5,4.9-6,9.5-2.2,13.1c-0.2-1.9,0.3-3.1,2.2-2.9
	c1.3,1.1,1.8,3,3.6,3.6c0.1-0.9-0.1-2.1,0.7-2.2c0.5,3.4,7.4,4.2,9.5,3.6c-2.2-3.6-10.7-4.9-8-10.9c0.2,0.6,0,1.4,0.7,1.5h1.5
	c-0.4-4.7-2.7-8.8-1.5-13.1c-1.1-0.9-3.3-0.6-2.9-2.9c1.4,0,1.5-0.6,0.7-1.5c0.8,0,1.6,0.2,2.2,0.7c1.2-1.4-0.1-0.9,0-2.9
	c2.5,0.2,1.5-1.5,3.6-2.9c0.1,0.9,0.2,1.7,1.5,1.5c0.6-2.1-1-1.9-0.7-3.6c1.5-0.5,3.2-1.9,4.4-0.7l0.1,0.7c-1.4,2.2-1,2.7,1.3,3.6
	c-5.7,1.5-5.5,2.8-5.1,7.3c-0.1-0.9,1.1-0.7,1.5,0c0.9,1.9-1.2,3.3-0.7,4.4s2.8,0.1,2.9,1.5c-2.8,0.6,0.1,2.9,0,5.1
	c1.1,0.4,3.8-0.9,3.6,0.7c-1.7,1.1-1.3,1.5-3.6,0.7c0.5,2.2-1.3,2.1-0.7,4.4c1.5,0.4,2.4,1.5,3.6,2.2c0.2-3.6,1.9-0.6,2.2-0.7
	c0.5-0.3,0.1-2.6,1.5-2.2c-1.2,2,1.4,2.8,1.5,3.6c0,0.4-2.9,2.5-0.7,2.2c-0.3-1.2,2.7,0.1,2.9,0.7c-0.4,1.1-1.1,1.8-1.5,2.9
	c1.6,0,2.8-0.6,3.8-1.2c-0.5,0.4-0.9,0.9-1.1,1.6c1.3-0.1,1.7,0.7,1.5,2.2c-1.8,1.8-3.1,5.9-2.9,8.7h1.5c1.1-1.6,2.3-3,3.6-4.4
	c-2.3-2.9,2.6-7.9,0.8-9.6c0.3-0.1,0.5-0.1,0.8-0.2C896.9,271.9,898.5,269.4,900,266.6z"/>
<path id="Path_57" class="st0" d="M784.9,332.2c-9.3,3-20.7,4-31.3,5.1c-3.5,0.4-7.3,1.7-10.9,2.2c-6.7,0.8-13.8,1-20.4,1.5
	c-5.4,0.4-10.7,1.8-16,2.2c-9.9,0.7-19.8,1.1-29.1,2.2c-4.5,0.5-9.4,1.3-12.4,1.5c1.6-0.1,0.3,2.6,0.7,3.6
	c-8.8,0.9-17.5,1.9-26.9,2.2c-2,1.2-0.3,2.6-0.7,3.6c-0.1,0.2-1.3-0.2-1.5,0c-0.1,0.2,1.5,3-0.7,2.9l0.7,0.7
	c0.6,2.2-2.4,2.8-2.2,5.1c0.1,1.6,2.3,1.3,0.7,2.9c-0.9,0.9-0.9,2.3-1.5,2.9c-0.3,0.2-2,0.5-2.2,0.7c-0.6,1.1,0.9,2.2,0,3.6
	c-0.9,1.5-1.1,0.5-3,2.2c-0.4,0.4,1,1.5,1,1.5c-1.4,2.7-1.3,4.6-0.1,8c-1,0.7-2.7,0.7-2.9,2.2c5.4-0.3,10.8-0.4,16-0.7
	c13.9-0.9,27.2-3.4,40.8-4.4c19.2-1.4,38.3-4.2,57.5-5.8v-6.5c2.3,0.4,2.8-1,4.4-1.5c0.4-5.7,3.9-8.2,10.2-8
	c2.4-2.3,5.2-7.7,8.7-6.5c0.5-1.7,0.7-3.7,1.5-5.1c2,1.7,2.3-3.1,4.4-2.9c1.1,0.1,0.2,1.8,2.2,2.2c1.6-3,4.5-7,8.7-5.1
	c0.7-3,1.4-5.9,4.4-6.5C783.9,335.5,786.6,332.9,784.9,332.2z"/>
<path id="Path_58" class="st0" d="M900,327.8c-0.1,0.9-1.2,0.8-2.2,0.7c-0.9,1.3,1.3,6.1-2.2,6.5c-1.4-1.8,0.7-2.6-1.5-3.6
	c1.8-1,1.3-2.5,0.7-4.4c-2.4,0.5-3.5,1.7-5.1,2.2c-2.2,0.7-1.4-1.5-2.9,0c-1.1,1.3-2.8,1.8-4.4,1.5c0.2-3.4-4.2-5.9-1.5-9.5
	c1,1.4,0.7,4.2,1.5,5.8c1.3-0.3,2.6,0,3.6,0.7c1-1,1.7-2.3,2.2-3.6c2.1-1.3,2.5-1,4.4-1.5c0.5-2.5-2.7-1.2-2.9-2.9
	c2.5-2.2,4,2.7,5.8,0.7c-1-0.3-1.6-1.2-1.5-2.2c1,0.2,1.2,1.2,2.2,1.5c-2.6-5.4-4.4-6.2-10.2-5.1c-4.7,0.9-7,2-10.9,2.9
	s-8.6,1.3-13.1,2.2c-7,1.4-14.4,3.4-19.7,4.4c-11.5,2.2-23.2,4.3-32.8,5.8c-7.7,1.4-15.5,2.1-23.3,2.2c0.5,2.9-0.7,4.2-0.7,6.5
	c-3.8,0.6-3.2,5.5-5.8,7.3c-4.1-2.5-5.5,3-8,4.4c-2,0.5-1.5-1.5-2.9-1.5c-1.9,2.3-3.6,4.7-5.1,7.3c-2.3-0.1-2.7,0.7-3.6,1.5
	c-1.8,1.4-2.9,3.5-4.4,4.4c-3.4,2-7.6,1.4-9.5,4.4c0.5,2.2-1.3,2.1-0.7,4.4c-1.5,0.4-2.1,1.8-4.4,1.5v5.8c2.5-0.5,5-1.1,7.3-1.5
	c6.2-1,16-0.9,18.9-3.6c0.7-0.7,0.4-0.3,1.5-0.7c1.4-0.5,2.6-1.2,3.6-2.2c0.6-0.6,1.4-0.3,2.2-0.7c1.1-0.8,2.4-1.6,3.6-2.2
	c2.5-0.8,5.7-0.4,8.7-0.7c6.9-0.8,12.9-2.5,20.4-0.7c1.2,1.7,2.7,3.1,2.9,5.8c4.3-0.6,8-1.6,11.6-2.2c3-0.5,8-1.7,9.5-1.5
	c1.5,0.3,4.3,2.8,6.5,4.4c1.6,1.1,3.3,2.8,4.4,3.6c0.6,0.5,1.5,0.2,2.2,0.7c0.3,0.2,0.4,1.2,0.7,1.5c0.6,0.5,1.6,0.3,2.2,0.7
	c1,0.8,2,2.2,2.9,2.9s2.8,0.9,3.6,1.5c1.3,0.9,1.7,2.4,2.9,2.9c3.1-1.5,7.3-1.9,10.9-2.9c0.5-2.9-0.7-4.2-0.7-6.5
	c1,0.2,1.2,1.2,2.2,1.5c-0.3-8,9-9.3,5.8-16c2.4,0.5,2.5,2.1,2.9,2.9c1.2-1.2,1.6-3.3,2.9-4.4c3.8-0.1,6.3-1.4,8-3.6
	c2.1-0.6,1.9,1,3.6,0.7c-0.2-1.4,0.8-1.6,0.7-2.9l-0.3-0.7l1.4-0.4c-0.5,0.1-1,0.2-1.4,0.4l-0.4-0.8c0-1.6-1.8-1.5-0.7,0.7
	c-2-1.6-5.2,1.5-8,0.7c-2.2-0.6-4.8-3.1-3.6-4.4c2,1,3.9,2,5.8,2.9c0.6-1.3,1.7-2.3,2.9-2.9c0.9-2.4-2.4-0.6-1.5-2.9
	c0.7-0.8,2.7-0.2,2.2-2.2c-3.9-1.2-9.3-0.9-11.6-3.6c1.8-1.4,4.2,1.2,7.3,0.7c2.1-0.1,0.4-4,2.9-3.6c0.8,0.5-0.5,2.8,2.2,2.9
	c0.1-0.9-0.1-2.1,0.7-2.2c-0.5,3.2,3.4,2,5.8,2.2c1.4-2.3,2.4-6.3,2.9-7.3h2.2C902.2,331.4,901.9,328.7,900,327.8z"/>
<path id="Path_59" class="st0" d="M761.6,381.7c0.5,1.5,2.2,3,3.6,1.5c-0.1,4,5.8,1.9,7.3,4.4c0.2-0.8,1.2-1.8,1.5-0.7
	c-1.7,0.3-0.9,0.5-0.7,2.2c0-0.3,0.7-1,0.7-0.7c0.2,0.9-1,1-0.7,2.2c0.5,0.5,1,0.9,1.5,1.5c1.7,2.2,2.2-0.2,1.5,2.2
	c2.3,0.8,2.8,3.8,5.1,5.1c0.5,0.3,1.8-0.4,2.2,0c1.1,0.9,3.1,3.1,3.6,3.6c0.3,0.4,0.3,1.9,0.7,2.2c1.2,0.9,3.5,0.1,4.4,1.5
	c0.2-0.8,1.2-1.8,1.5-0.7c-0.5,0.2-0.9,0.5-1.3,0.9c0.5,0.2,1.8,2.7,2,2.7c-0.3-0.1,0.5-1.2,0.7-0.7c0.3,0.5-0.8,1-0.7,1.5
	c0.1,0.6,2.8,1.6,1.5,2.9c2.3-1.3,1.8,1.5,2.9,2.2s2.1,0,2.9,0.7c1.2,1.1,3,2,3.6,2.9c-0.2-0.2-1,0.8-0.7,1.5
	c0.5,1.2,1.7,1.4,2.2,2.9c0.4,1.2-0.4,2.5,0.7,3.6c3.8-1.6,0.1,2.6,4.4-0.7c-3.4,3.1,3.4,4.8,2.2,10.2c2.3-0.1,2.1,2.3,5.1,1.5
	c1-1.7-1.9-2.7,0-2.9c0.4,1.5,0.7-0.6,1.5-0.7c0.7-0.2,1.2,1.2,1.5,0c-2-0.9-4.4-5.2-2.9-7.3c0.2,0.8,0.8,1.1,1.5,1.5l0.5-0.5
	l3.2,1.6c-0.8-0.9-1.9-1.5-3.1-1.7l0.2-0.2c1.1-4,4.3-1.5,8-2.9c-0.1-3.7,2.5-0.2,2.9-2.9c-0.4,0-0.8-0.6,0-0.7
	c1.1,2.4,1.8-1.5,3.6-0.7c-0.9-1.6-1.6-3.3-2.2-5.1c2.9-1,2.3,1.6,4.4,1.5c-0.1-1.8,1.6-1.8,2.2-2.9c0.5-0.5-0.7-3.2,0-2.9
	c2.3,0.8-1.7-1.2,1.5-2.2c-1.9,1.9,1,1.4,2.9,1.5c0.1-0.8-0.9-2.5,0-2.2c1.4,0.5,0.4-0.8,0-2.2c1,0.9,2.7,1,2.9-0.7
	c-1.2-2.1-3.8,1.2-4.4-0.7c3.5,0.4,1.2-4.9,2.2-5.1c0,1.3,2-1.3,2.9-1.5c-0.4,0-0.8-0.6,0-0.7c-0.3,0.3,0.6,1.1,0.7,0.7
	c0.8-1.7,1.3-4.9,2.2-5.8c0.5-0.5,0.3-0.8,0.7-1.5c1.5-1.9,3.7-1.8,4.4-4.4c-0.8,0-1.6,0.2-2.2,0.7c2.1-2.3-2.8-2.1-2.9-4.4
	c-1-0.1-2.1,0.1-2.9,0.7c2-2.4-0.4-1.5-1.5-2.2c-0.6-0.4-0.3-1.7-0.7-2.2c-0.2-0.2-2.2-1-2.9-1.5c-3.2-2.2-1.9-2.2-4.4-1.5
	c1.2-1.5,0.3-1.6-0.7-2.2c-0.5-0.3-1.1-1.3-1.5-1.5c-0.5-0.2-1.8,0.3-2.2,0c-0.3-0.7-0.5-1.4-0.7-2.2c-1.5-0.4-2.5,2.2-2.9,0.7
	c0.8-0.2,1.8-1.2,0.7-1.5c-1.7,0.2-3.4,0.4-5.1,0.7c-2.5,0.5-5.8,0.1-8,0.7c-0.5,0.1-1.4,1.3-2.2,1.5c-0.4-0.4-0.9-0.7-1.5-0.7
	c-1.8,0.1-3.7,1.1-5.1,1.5c-0.6-2.8-1.1-5.7-3.6-6.5c-0.2,0.6,0,1.4-0.7,1.5c-1.3-3.6-7.9-2-13.1-1.5c-4.7,0.5-9.2,1.7-13.1,1.5
	c0.1,2.4-2.8,1.4-2.9,1.5c-0.6,0.3,0.3,1.5-0.7,1.5c-0.2,0-0.6-1.3-1.5-0.7c-0.1,2.6-1.4,2.1-5.8,2.9c0,2.1-4.1,1.7-2.2,3.6
	C763.2,377,762.5,379.4,761.6,381.7z"/>
<path id="Path_61" class="st0" d="M725.2,409.3c1.9,7.1,3.5,15.7,5.8,21.8c0.8,2.2,1.8,4.4,2.9,6.5c0.5,0.7,1.8,0.6,2.2,1.5
	c1,2,0.9,4.7,2.2,6.5c-2.4,2.9-3.3,7.5-2.9,11.6c0.1,1.4,1.8,3.1,2.2,5.1c0.4,2.5-0.5,6,0,8c0.2,0.9,1,1.4,1.5,2.2
	c1.7,2.8,3.2,5.7,4.4,8.7c3.7,0.8,5.8-1.2,7.6-0.9c15.6-0.5,31-2,46.2-2.7c2.1,0.5,0.9,4.5,3.6,4.4c1.7-2.4,0.4-6.8-0.7-8.7
	c1.3-1.1,2.5-2.3,3.6-3.6c1.2,2.2,4.7,2.1,8,2.2c-2.1-4.2-0.4-5.8-1.5-11.7c1.9,0.4,2.8,1.2,2.9-1.5c-0.6-1.6-3.8-0.6-4.4-2.2
	c0.6-1.1,1.9,0.1,2.2,0c1.1-0.2,1.3-1,2.9-1.5c-1-1.2-2.3-10,1.5-8.7c-0.2-1.7-1.2-2.7-0.7-5.1c1.9,2.5,4,0.6,4.4-2.2
	c-1.7-0.2-2.7-1.2-5.1-0.7c-1.2-3.8-1.3-6-3.6-8.7c0.4,0.5-1.4,0.6,0-0.7c-1.4-1.1-3.8-1.1-4.4-2.9c0.1-3.7-2.6-4.7-2.9-8
	c-4.9-2.2-9.3-4.8-10.9-10.2c-3.2-1.6-4.3-2-5.8-3.6c-0.4-0.5-1.5,0-1.5,0c-0.4-0.5,0.7-0.7,0.7-0.7c0.3-1.5-2.5-1.5-2.2-2.9
	c-3.3,0.8-0.9,0.3-2.2-0.7c-0.6-0.5-1.6-0.2-2.2-0.7c-3.1-2.5-5.9-8.4-8-11.6c-2.2-0.5-1.4-0.5-3.6,0c-1.3-3.3-6.8-2.4-7.3-6.5
	c1.7-1.5,2.6-3.7,3.6-5.8c-14.7,3.2-31.1,3.9-46.7,6.2C719.4,390,722.5,399.1,725.2,409.3z"/>
<path id="Path_62" class="st0" d="M691,490.1c-1.7-2.1-4.6-3.2-5.1-6.5c2-4.6,10.2-3,16-3.6c12.2-1.3,25.8-3.8,37.1-4.4
	c-0.1-3.1-2.8-3.5-2.9-6.5c1.2-1.2,0.6-4.3,0.7-6.5c-2.4-3.7-2.9-5.9-2.2-10.2c0.6-3.4,0.8-4.9,2.2-7.3c-2.4-0.7-0.8-3.6-1.5-5.1
	c-0.5-1.2-2.2-1.8-2.9-2.9c-1.2-2.1-2.1-4.3-2.9-6.5c-1.4-3.8-1.7-8.2-2.9-12.4c-3.4-12.3-8.2-24.9-10.9-36.4
	c-16,1.7-31.7,3.8-48.8,4.4c-1.9,1.1,2.7,1.6,1.5,4.4c-1,20.4,0.4,44.5-1.5,62.6c-1,10.1,1.9,17.4,2.9,25.5c0.8,6.5,0.6,13,2.2,18.9
	h5.1c-0.1-3.5,0-6.8,1.5-8.7c2.5,0.9,3.4,3.4,2.9,7.3c3.4-0.5,2.7,3.1,5.1,3.6c2,0.5-0.5-3.4,1.5-2.9c0.7,2.2,1.9-0.8,2.9-0.7
	C691.4,492.7,690,492.3,691,490.1z"/>
<path id="Path_65" class="st0" d="M851.2,551.3c0.9-0.1,0.8-1.2,0.7-2.2c-3.1-2.7-4.2-8.5-6.5-10.9c-1.4-1.6-2.6-3.3-3.6-5.1
	c-1.6-2.5-3.7-5.4-5.1-8c-1.6-3-3.5-6-2.9-9.5c1.3-0.3,1.9,1.1,2.2,0c-6.9-6.4-12.1-15.4-16-24c-1.8-4-4.4-7.8-4.4-12.4
	c-3.3-1.1-2.1-4.4-2.9-6.5c-4.4,1-8.1-1.7-10.2-0.7c-2.3,2.2,3.4,11.3-2.9,10.9c-1.1-0.6-1.6-1.8-1.5-3.6
	c-17.1-0.6-36.4,2.9-55.3,2.9c-1-2-2-3.9-2.9-5.8c-13.9,1.5-30.4,3.1-43.7,5.1c-3,0.4-7.7-1.6-8.7,2.9c0.2,3.5,4.2,3.1,5.1,5.8
	c-2.4,1.8,0.9,3.9,1.5,5.1h1.5c1.6-2.1,0.6-4.5,2.2-4.4c0.5,0,1.2,1.6,1.5,1.5c0.8-0.5-0.8-3.4,1.5-2.9c0.3,2.7,1.5,3.9,1.5,5.1
	c3.7-1.2,8.3-1.4,10.2-4.4c2.1,0.6,9.7,0.9,5.8,4.4c3.1-0.4,4.1,1.3,6.5,1.5c0-3.6,2.4-1.2,3.6-1.5c0.6-0.1,2.8-3.7,2.9-1.5
	c-0.7,1.5-2,2.4-2.9,3.6c2.4,0.3,4.7,1.3,6.5,2.9c-1,1.8-1.5,0.5-2.2,1.5c3.7,0.4,4.7,3.5,5.8,6.5c1-2,3.2-0.4,5.1-1.5
	c1.4-0.8,1.5-2.6,2.9-2.9c-0.1,0,0.4,2.4,1.5,1.5c1.1-1.3,2.1-3.2,4.4-4.4c1.3-0.7,2.5-0.4,3.6-1.5c-0.5,0.5-2-0.2-2.2-0.7
	c0.3,0.2,2.2-1.6,2.2-1.5c1.1-1.1,1.2-1.9,2.2-2.2c1.9-0.4,3.9-0.4,5.8,0c2.5,0.8,4.9,1.7,7.3,2.9c1.1,0.8,1,2.7,2.2,3.6
	c2.1,1.7,5.6,1.4,4.4,5.1c4.3,1,5.6,5.1,9.5,6.5c0.1,1.6,1.8-0.9,3.6,0c1.9,2,2.5,5.3,5.1,6.5c2.8,7.1-0.3,14.9,0.4,21.1l-0.4,0.7
	c0.3,1.8-1.3,1.6-0.7,3.6c2.3-0.3,1.7,2.2,4.4,1.5c-0.1-1,0.1-2.1,0.7-2.9c-2.9,1.2-1.5-1.9-2.9-2.2l0.4-0.7c3.4,2.1,6-0.3,6.9,3.6
	c0.7,1.7-1.6,2.4-2.2,3.6c-0.6,1.3,0.3,4.6-2.2,4.4c0.2,2.5,3.2,2.1,3.6,4.4c1.8,4.5,3.5,9.1,8.7,10.2c0.8-2.1-3.5-2.7-1.5-3.6
	c2.1,1.9,4.2-1.3,5.1,0c-1.4,2.5-1,8.5,1.5,9.5c1.3-1.6,0.9-4.9,4.4-4.4c-1.2,1.7-2.7,3.1-2.9,5.8c1,0.7,2.7,0.7,2.9,2.2
	c0.4,3.7,2.1,6.1,3.6,8.7c1.8,1.2,3.7,0.1,5.8,0.7c2.8,0.8,2.8,2.4,4.4,4.4c2,2.6,4,4.9,5.8,7.3c2.7-0.3,4.3,0.6,4.4,2.9l0.4-0.4
	l0.4,0.4c4.1,2.8,5.1-2.9,9.5-2.2c-0.6-1.8,1.3-2.6,1.5-4.4c0.2-1.6-1-3.4-0.7-5.1s1.8-3.3,2.2-5.1c1.3-5.8-0.1-19.2-1.5-23.3
	C855.8,554.1,854.9,552.9,851.2,551.3z"/>
<path id="Path_68" class="st0" d="M562.2,511.2c-2.2-5.2-1.2-13.2,2.2-16.7c-0.1-1.5-0.4-2.9-0.7-4.4c-0.1-0.7,0.7-0.7,0.7-0.7
	c0.3-4.5-1.6-4.9-2.9-7.3c-0.3-0.6,0.3-1.6,0-2.2s-1.7-1.4-2.2-2.2c-0.5-0.9-1-1.9-1.5-2.9c1.6-1.5-0.4-2.1,0-4.4
	c-1.4-1.5-3.2-2.6-4.4-4.4c-0.5-12.4-0.5-25.2-1.5-37.1c-2.1-0.9-4.5-0.9-6.5,0c-0.9-3.1-4.3-2.1-6.6-2.9c-0.2-0.1-0.5-1.3-0.7-1.5
	c-0.6-0.3-1.6,0.3-2.2,0c-1.8-0.9-4.1-5.3-7.3-4.4c-1.7,3.2-5.9,0.8-7.3,0c-1.4,0.8-2.6,1.8-4.4,2.2c-2.1-0.7-2.2-0.7-4.4,0
	c-1.5,1.5-3.7,2.1-5.1,3.6c-1.7-1.7-4.9-1.9-5.8-4.4c-3.7,1.6-4.5-0.4-7.3-1.5c0.2,0.8-0.5,1.1-0.7,1.5c-1,1.3-1.3,3.7-2.9,3.6
	c-2.3,0.3-0.5-3.3-2.2-3.6c-0.7,1.3-2.3,1.6-4.4,1.5c-0.6-1.7-1.9-3-3.6-3.6c-1.8,0.8-2.4,2.9-5.1,2.9c-0.7-1.1-1-2.4-0.7-3.6
	c-2.3,0.3-3.3-0.6-2.9-2.9c-4.3-0.5-4.5-0.3-7.3,1.5c-3.2-2.6-8.2-3.4-13.8-3.6c-1.2-1-0.2-4.1-1.5-5.1c-2.1-0.9-4.4,0.5-8,0
	c-2.4-1.7-3.9-4.3-7.3-5.1c1.3-14.5,1.5-30,1.5-45.9c-18.6-1.3-38.3-1.5-56.8-2.9c-2.5,35.6-5.2,70.9-7.3,107
	c-1,0.2-1.2,1.2-2.2,1.5c-24.3-1.2-47.7-3.2-70.6-5.8c-0.6,5.2,4,5.2,5.8,8c0.1,2.1,1.3,3,1.5,5.1c5.1,2,7,5.6,10.2,9.5
	c0.9,1.1,2.1,1.7,2.9,2.9s1.3,2.8,2.2,3.6c1.2,1.2,3.3,1.4,4.4,2.2c1.3,1.1,2.6,2.3,3.6,3.6c0.8,0.9,1.6,1.9,2.2,2.9
	c0.4,0.7-0.3,2.1,0,2.9c0.1,0.2,1.3,0.5,1.5,0.7c0.3,0.7,0.5,1.4,0.7,2.2c1,1.8,1.3,3.9,0.7,5.8c-1.3,5.3,3.5,7.5,3.6,11.7
	c4.2,0.7,5.7,5.2,8.7,7.3c1.4,1,3.5,0.6,5.1,1.5c0.6,0.3,1.2,1.5,2.2,2.2c3,2.1,6.1,5.2,10.2,5.1c2.4-2,5.3-4.6,6.5-7.3
	c1.4-3.1,2.5-6.5,3.6-8c1.3-1.8,4.1-3.2,6.5-2.2c1.8-4,4.7-1.3,7.3-0.7c4.8,1.2,9.3,1.5,12.4,0.7c1.8,1.9,2,3.4,4.4,5.8
	c-0.4-0.4,0.4-0.2,0.7,0c1.9,1.5,3.6,3.2,5.1,5.1c2.4,2.9,5.3,4.7,6.5,8c0.7,1.8,0.9,4.5,1.5,5.1c0.9,1.1,1.6,2.3,2.2,3.6
	c0.2,0.4-0.2,1.1,0,1.5c0.1,0.2,1.3,0.5,1.5,0.7c0.7,1.1,1.2,2.4,1.5,3.6c0.3,2,0.7,3.9,1.5,5.8c1.1,0.9,3,0.9,3.6,2.2
	c1.8,4,4.7,6.9,6.5,10.9c2.1,0.8,4.3,1.5,5.1,3.6c1,2.2-0.2,4.1,0,5.8c0.1,1.1,1.4,1.3,1.5,2.9c0,1-1.2,1.4-0.7,2.9
	c2.2,2.3,3.9,5,5.1,8c0.5,1.5,0.1,3.6,0.7,5.1c0.5,0.2,1,0.4,1.5,0.7c0.5,0.7,0,1.9,0.7,2.2c3.9,0,7.1,0.7,8,3.6
	c5.1-0.5,6.9,2.3,9.5,4.4c4.5,0.6,7.7-0.8,10.9,0c3.4,0.9,4.5,5,8,5.1c-1.1-2.6,2.5-0.4,2.2-2.2c-2-1.7-0.8-4.7-1.5-7.3
	c-0.4-1.6-1.7-2.7-2.2-4.4c-0.5-2-0.2-4.6-0.7-6.5c-0.6-2-3.7-3.2-2.2-6.5c2-0.9,2-3.9,2.9-5.8c-2.3,1.1-3.2,0.3-5.8,0
	c0.5-2.7-1.6-2.8-1.5-5.1c2.6,0.8,3.7,3.1,8,2.2c0-3.2,2-4.3,2.2-7.3c-0.6-1-1.4-2-2.2-2.9c-1-0.8-2.1,0.3-2.9-1.5c2.6-1,5.4-1,8,0
	c-0.3-2.3,4-3.7,2.2-5.1c0,0.9-0.9,1-0.7,2.2c-2.9-1.1-1.4-2.8-2.2-5.1c2.4,2.4,6.3-3.1,7.3,0c2.7-1.6-0.2-4.5,1.5-6.5
	c2.1,2.8,5.1,3.4,7.3,0c-1-0.1-2.1,0.1-2.9,0.7c2.7-2.7-3.3-5.6-1.5-7.3c3.4-0.8,1.9,3.4,5.1,2.9c0.4-1.3-2.1-3,0-3.6
	c0.4,3.8,3,1,4.4,1.5c0.2,0.1-0.1,1.3,0,1.5c0.9,0.9,4.3-0.7,3.6-0.7c1.1,0.1,0.6,1.8,2.2,1.5c0.1-1.1-0.3-2.7,0.7-2.9
	c2.3,0.2,3.1-1.3,5.8-0.7c2.9-3.6,9.3-3.8,9.5-10.2c2.5-0.4,2.7-3.1,5.1-3.6c-1.3-4-2.9-5.6-2.9-9.5c1.3-2.1,1.5,1,2.9,0.7
	c1.2-0.3,1.8-4.2,4.4-2.2c0,1.9,0.3,4.2-0.7,5.1c1.8,0.3,4.4-0.7,5.1-0.7c0.9-0.1,1,1,2.2,0.7c1.6-0.4,3.1-2.2,5.1-2.9
	s3.2-0.3,5.1-1.5C554.7,517.2,560.5,513.8,562.2,511.2z"/>
<path class="st0" d="M611.2,443.4c-0.2-1.3,1.8-2.8,0-2.9c-1.4,1.5-2.6,2-1.5-0.7c-4.6-0.3-9.2-0.3-13.8,0
	c-13.8,0.7-28.8,2-42.2,2.2c-0.1,8.1,1.3,14.7,0.7,23.3c2.2,3.2,5.8,4.8,5.1,10.9c2.6,0.4,2.1,4.4,2.9,5.8c0.5,0.9,2.6,1.8,2.9,2.9
	c0.6,3.4,0.6,6.8,0,10.2c-0.4,1.9-2.5,3.5-2.9,5.1c-0.4,1.9-0.7,3.9-0.7,5.8c0.1,1.9,1.7,3,1.5,5.1c-0.1,1-1.3,1.5-1.5,2.2
	c-0.3,1.1,0.5,2.6,0,3.6c-0.6,1.2-3.2,1.3-2.2,2.9c2.7-1.2,8,0.2,9.5-2.2c-1-0.8,1.1-4.7,1.5-6.5c1.6,1.7,3,4.5,1.5,7.3
	c2.6-0.7,3.8,0.8,5.8,1.5c2.8,1.1,5.7,1.8,8.7,2.2c1.9,0.2,4.7,1.6,5.8,1.5c1.2-0.1,2.2-2.5,3.6-1.5c0.8-2.1-3.5-2.7-1.5-3.6
	c2.8-0.6,4.6-2.2,7.3-2.9v2.2c4.1-0.5,6,1.2,6.5,4.4c2.5-0.6,2.8,1.1,5.1,0.7c0.1-1.1-0.1-2.5,1.5-2.2c-1,5.3,3,5.7,3.6,9.5
	c1.6-1.2,5.9,1.5,8,1.5c0.5-3.2,1.7-4.3,3.6-5.1c2.7-1,1.5,0,2.2,0.7s2.9-0.5,3.6,0c0.3,1.4-1,4.4,1.5,3.6c3.1-0.6,0.5-3.3,0.7-4.4
	c0.1-0.2,2.7-0.5,1.5-2.2c-0.9-1.8-4.5-0.9-3.6-4.4c2.4-0.5,3.7,1.6,5.1,2.2c2.1,0.9,3.2-0.3,4.4,0.7c0.4,0.3,0.3,1.9,0.7,2.2
	s1.6-0.3,2.2,0c1,0.5,2.1,2.6,4.4,1.5c-0.2,1.4,0.8,1.6,0.7,2.9c1.4,0.2,1.4-1,2.2-1.5c1,1.2,1.9,2.5,3.6,2.9
	c1.6-2.7-0.1-4.1-1.5-5.8c-2.8,1.1-3.9-1.3-4.4-1.5c-0.9-0.3-1.9,0.9-2.2,0.7c-0.5-0.3-0.3-1.8-0.7-2.2c-1.3-1-5.2-0.2-4.4-2.9
	c2.3-0.9-0.6-2.5,2.9-2.2c-1.3-2.4,0.3-4,3.6-3.6c0.1-2.3-2.3-2.1-1.5-5.1c-3.2-0.5-1.6,3.8-3.6,4.4c-1.8-0.8-4.1-1.2-5.1-2.9
	c-0.4-1.4,4-1.7,1.5-2.9c-1.7,0.3-10.4,4.5-13.8,0.7c0.4-3.1,2.3-5.8,5.1-7.3c2.5-0.6,4.2,2.6,5.1,2.9c1,0.4,2.6-0.3,3.6,0
	c1.5,0.3,2.7,3.1,3.6,0.8c0,0-1.4-2.4-1.6-2.6l-0.5-0.8c-1.2-2-2.6-3.5-3.6-5.6c0,0-0.1-0.1-0.1-0.2c-0.3-0.7-0.6-1.5-0.8-2.4
	c1.1-1.6,1.1-4.2,2-6c0,0-0.1-0.2-0.1-0.2l-0.7-0.3l-0.2-0.1c-12.6,1.5-26.1,1.8-38.8,3c2.2-1.5,0.8-4.8,0-7.3
	c0.8,0,1.6-0.2,2.2-0.7c0.6-0.9-1.4-2.2-0.7-2.9c0,0,0.2,0,0.3,0c0.7,0,1.2-0.7,1-1.3c-0.2-0.5-0.4-0.9-0.5-1.5
	c-0.1-1.2,4.2-4.5,2.9-7.3c2-1.4,3.7-3.1,5.1-5.1c-3.4-0.1,0.5-1.3,0.7-2.2c-0.8-0.3-1.6-0.8-2.2-1.5c0.3-2.1,3.1-1.7,3.6-3.6
	c-1-1.3-2.2-2.3-2.9-3.6c-0.3-0.6,0.2-1.6,0-2.2s-1.3-0.6-1.5-1.5c-0.2-0.8,1.5-1.3,1.5-2.2C612.3,445.5,611.2,443.6,611.2,443.4z"
	/>
<path class="st0" d="M610.5,437.6c-0.1-0.9-0.9-1.7-0.9-2.1c0.2-1.2,1.6-0.5,1.5-2.2c-0.3-0.7-0.5-1.4-0.7-2.2
	c-0.4-2.1-2-0.7-2.9-3.6c0.1,0.2,1.5-1.1,1.5-1.5s-2.2-0.9-1.5-2.2c2.8,0.1,0.3-0.6,0.7-2.2c1.9-0.3,2.1-2.3,2.9-3.6
	c0.6-3.4-1.1-0.8-1.5-2.2c1.2-1,1.8-2.6,4.4-2.2c-0.4-2-1.1-3.8-1.5-5.8c2-0.1,1.5,1.2,2.9,0c0-3.2,3.6-2.7,4.4-5.1
	c-0.6-1.6-0.6-5.3,0-8.7c1.3,1,1.7,0.7,1.5-1.5c2-0.1,1.5,1.2,2.9,0c1.6-1.5-0.1-2.4-0.7-3.6c2.2-0.4,3.9-2.2,4.4-4.4
	c-0.2-2.5-1.8-3.5-1.5-6.5l1.5-1.5c1.9-1.7,3.3-1.8,2.2-5.1c1.8-1.4,2.6-1.2,3.6-2.9c-0.1,0.2-1-0.8-0.7-1.5c0.2-0.4,2.3,0,1.5-1.5
	c-6-1-8.5,2.7-12.4,0c-2-1.8,2.7-4,0.7-5.8c1.5,1.5,3.7,0,3.6-2.2c-1.1-6-7.9-3.2-12.4-2.9c-24,1.6-49.7,2.8-73.5,2.9
	c0,6.9,2.9,14.1,3.6,21.8c1.4,15.6-1,32.8,1.5,48.1c1.9,0.8,2.1-2.3,2.9-1.5c0.1,0.1-0.1,1.5,0,1.5c1,0,2.3-0.8,3.6,0
	c0.2,0.6,0.6,0.8,1.5,0.7v12.4c5.3-0.8,11.1,0.8,16.7,0c1.6-0.2,2.9-1.4,4.4-1.5s3.6,0.7,5.1,0.7c10.8,0.2,20.7-1.9,30.6-1.5
	C610.4,438.1,610.5,437.7,610.5,437.6z"/>
<path class="st0" d="M671,496.9v-1.3c-1.8-16.2-6.1-33.4-5.2-51.8c0.9-18.4,0.6-37,1.5-55.3c-1.1-0.1-2.5,0.1-2.2-1.5
	c-12.9,1.7-27,2-40,3.6c0.3,1.1-0.4,1.7-0.7,2.2c-1.5,2.4-2,1-2.2,4.4c-0.1,1.3-1.2,1.3-2.2,2.9c2.6,5.6-7.9,8-5.1,13.8
	c-1.1,0.9-3,0.9-3.6,2.2c0.6,0.2,0.9,0.6,0.7,1.5v1.5c0.2,1.7-2.1,0.8-2.2,2.2c0.9,0.1,2.1-0.1,2.2,0.7c-1.9,0-1.9,2-2.9,2.9
	c-0.5,1.8,1.5,1.6,2.2,3.6c0.2,0.5-1,1.5-0.7,2.9c0,0.2,1.4,1.2,1.5,1.5c0.9,3-1.1,3.5-1.6,4.9l0,0.2c0,0,0,0.8,0.2,1.2
	c0.2,1.5,2.7,0.7,2.9,2.2c-0.5,0.3-1,0.5-1.4,0.9c-0.6,0.6-0.6,1.5-0.2,2.2l0,0.1c0.2,0.3,0.4,0.6,0.7,0.7c0.3,0.1,0.6,0.3,0.6,0.6
	c-0.7,0.7-1.5,1.4-2.2,2.2c1.1,0.1,2.7-0.3,2.9,0.7c-1.4,1.3,0.9,2.1-0.7,3.6c1.2,1.3,3.3,1.5,3.6,3.6c-1.8,0.6-2.9,2-4.4,2.9
	c3.8-0.5,1.1,1.5,1.5,3.6c-1.4,2-3.1,3.7-5.1,5.1c2.2,2.9-3.5,4.2-1.5,5.8c0.5,0.4-0.8,0.8-0.7,0.7c-0.5,1.1-1.1,2.5-0.7,3.6
	c0.1,0.4-0.1,2.6,0.7,3.6c-3.1-0.9-3.3,3-1.5,5.8c12.6,0.4,25.1-2.9,36.5-1.7c0,0,1.4,0.5,1.4,0.5c0,0.4,0,0.8-0.1,1.1c0,0,0,0,0,0
	c-0.1,0.3-0.1,0.6-0.2,1c0,0,0,0,0,0.1c-0.1,0.3-0.2,0.6-0.3,0.9c0,0,0,0.1,0,0.1c0,0.1-0.1,0.2-0.1,0.3c0,0.1-0.1,0.2-0.1,0.2
	c0,0.1-0.1,0.2-0.1,0.3c-0.1,0.3-0.2,0.5-0.3,0.8c0,0,0,0.1,0,0.1c-0.1,0.3-0.2,0.6-0.2,0.9c0,0,0,0.1,0,0.1c0,0.3-0.1,0.6-0.1,1
	c0,0,0,0.1,0,0.2c0,0.4,0,0.7,0,1.1c0,0,0,0.1,0,0.1c0.1,0.3,0.2,0.5,0.3,0.8c1.1,1.5,2.9,2.1,3.4,4.1c0.3,0.7,0.6,1.4,0.8,2.1
	c0.1,0.4,0.2,0.7,0.4,1.1l0.5,0.7c0.3,0.6,0.9,1,1.5,1.1c0.2,0,0.4,0,0.6,0c1.4-0.8,1.5-2.8,2.9-3.6c3.4,0.2,6.4-3,9.5-2.9
	c2,0,2.2,0.9,4.4,1.5c0.8-2.1,2.5-0.7,4.4,0C671.9,498.1,669.4,497.3,671,496.9z"/>
<path class="st0" d="M746.9,193.2c-0.3,0.5-0.6,1-0.9,1.5c0,0-0.3-3.6-0.1-4.1c-0.4-0.9-1.4,0-2,0.5c-0.1,0.1-0.7-0.5-0.7-0.5
	c0.5-0.7,1-1.2,1.7-1.7c2.4-0.9,0.6,2.4,2.9,1.5c0.3-3.1-0.7-7.5,0.7-9.5c-5.6-5.8-4.5-18.3-10.9-23.3c-4-0.2-4.6,3.2-8,3.6
	c0.1,5-3.4,6.3-5.1,9.5c-4.9-0.7-5.8-3.5-5.1-9.5c1.5-0.7,2.9-1.5,4.4-2.2c-0.2-2.3,1.3-3.1,0.7-5.8c4.6-2.2,2.4-8.6,2.2-13.1
	c-1-1.7-3.1-2.3-3.6-4.4c0-1.9,2.3-1.6,2.2-3.6c-3-4-8.1-6-14.6-6.5c-0.6-3.7-4.5-2.4-7.3-3.1c-2.1-0.5-2.5-2.8-4.4-2.2
	c-1.4,2-4,2.7-4.4,5.8c-0.6,2.8,3.2,1.2,2.2,4.4c-3.4,0.1-4.8,1.6-5.8,4.4c-0.6,1.7,0.9,4.2,0.7,5.8c-0.2,1.7-1,3.2-2.2,4.4
	c-0.6,0.4-0.7-0.7-0.7-0.7c-1.2-0.2-1.8,2.9-2.2,0.7V140l-0.5-0.5c0.1-0.4,0.1-0.9,0.2-1.3l-0.2,1.2l-0.1-0.1
	c-1.2,2.5-3.4,3.9-5.8,5.1c1.1,2.4-1.8,3.4-2.2,5.8c-0.1,0.6,0.6,1.7,0.7,2.9c0.6,6.2-2.5,8.8-3.6,12.4c1.5,1.6,2.2,3.7,2.2,5.8
	c-0.1,2-1.8,2.6-1.5,4.4c0.2,1,1.1,1.5,1.5,2.2c1.5,3,1.6,4.9,4.4,5.8c-0.6,3.7,1.9,7.2,2.2,11.6c0.5,6.5-1.6,12.5-2.9,16
	c-1.3,3.6-1.7,5.2-2.9,7.3c-1.1,0-2.4,2,0,1.5c2.6-0.9,5.5-0.4,8-0.7c6.7-0.8,14.1-2.8,20.4-2.9c2.2,0,4.5,0.8,6.5,0.7
	c7.4-0.3,14.6-3.1,21.8-3.6c0.3-5.6,4.9-6.8,3.6-13.8c1-1.2,2.3-2.1,3.6-2.9c-0.3-2.3,0-4,0.6-5.4l0.8,1.1c-0.2,1.2-0.2,2.7,0.3,3.1
	c0.3,0.3,1.8,0.1,1.8,0.1c-0.4,0.8-0.8,1.6-1.3,2.3c-1.6,2.8,6-0.1,6.4-2.8C749.6,194.2,747.9,191.8,746.9,193.2z"/>
</svg>