<svg height="40" viewBox="15.517 14.55 180 53.333" xmlns="http://www.w3.org/2000/svg">
                    <defs>
                        <clipPath clipPathUnits="userSpaceOnUse" id="clipPath56">
                            <path d="m 205.098,176.105 -0.743,0.711 c -2.91,3.079 -4.628,7.86 -4.628,14.051 v -1.457 0 221.16 c 0,0.02 0,0.035 0,0.051 0,-0.019 0,-0.035 0,-0.055 v -1.461 c 0,6.704 2.003,11.754 5.359,14.782 L 328.984,299.992 205.098,176.105 m -5.371,234.528 c 0,0.551 0.015,1.086 0.043,1.613 -0.028,-0.523 -0.043,-1.062 -0.043,-1.613 m 0.043,1.637 c 0,0.007 0,0.015 0.003,0.023 -0.003,-0.008 -0.003,-0.016 -0.003,-0.023 m 0.003,0.07 c 0,0.004 0,0.008 0,0.012 0,-0.004 0,-0.008 0,-0.012" id="path54"></path>
                        </clipPath>
                        <linearGradient x1="0" y1="0" x2="1" y2="0" gradientUnits="userSpaceOnUse" gradientTransform="matrix(-167.825,-167.825,167.825,-167.825,317.998,412.903)" spreadMethod="pad" id="linearGradient70">
                            <stop style="stop-opacity:1;stop-color:#00a0ff" offset="0" id="stop58"></stop>
                            <stop style="stop-opacity:1;stop-color:#00a1ff" offset="0.0066" id="stop60"></stop>
                            <stop style="stop-opacity:1;stop-color:#00beff" offset="0.2601" id="stop62"></stop>
                            <stop style="stop-opacity:1;stop-color:#00d2ff" offset="0.5122" id="stop64"></stop>
                            <stop style="stop-opacity:1;stop-color:#00dfff" offset="0.7604" id="stop66"></stop>
                            <stop style="stop-opacity:1;stop-color:#00e3ff" offset="1" id="stop68"></stop>
                        </linearGradient>
                        <clipPath clipPathUnits="userSpaceOnUse" id="clipPath80">
                            <path d="m 370.277,257.215 v 0 l 0.942,0.535 48.929,27.801 c 4.665,2.652 7.774,5.867 9.325,9.269 -1.547,-3.402 -4.657,-6.621 -9.325,-9.273 l -48.929,-27.801 -0.942,-0.531 m 0.012,1.465 -41.305,41.312 41.301,41.305 49.863,-28.328 c 6.332,-3.598 9.887,-8.235 10.481,-12.973 0,-0.004 0,-0.012 0,-0.019 -0.594,-4.727 -4.149,-9.368 -10.481,-12.965 L 370.289,258.68" id="path78"></path>
                        </clipPath>
                        <linearGradient x1="0" y1="0" x2="1" y2="0" gradientUnits="userSpaceOnUse" gradientTransform="matrix(-241.97,0,0,-241.97,438.344,299.986)" spreadMethod="pad" id="linearGradient90">
                            <stop style="stop-opacity:1;stop-color:#ffe000" offset="0" id="stop82"></stop>
                            <stop style="stop-opacity:1;stop-color:#ffbd00" offset="0.4087" id="stop84"></stop>
                            <stop style="stop-opacity:1;stop-color:#ffa500" offset="0.7754" id="stop86"></stop>
                            <stop style="stop-opacity:1;stop-color:#ff9c00" offset="1" id="stop88"></stop>
                        </linearGradient>
                        <clipPath clipPathUnits="userSpaceOnUse" id="clipPath100">
                            <path d="m 213.93,171.387 c -3.461,0 -6.481,1.125 -8.836,3.25 l 0.004,0.004 c 2.355,-2.125 5.379,-3.254 8.84,-3.254 0.3,0 0.605,0.008 0.914,0.023 -0.313,-0.015 -0.622,-0.023 -0.922,-0.023 m 0.004,1.465 c -3.461,-0.004 -6.481,1.125 -8.836,3.25 v 0 0.003 l 123.886,123.887 41.305,-41.312 v 0 L 225.137,176.207 c -4.016,-2.277 -7.821,-3.355 -11.203,-3.355 m -8.871,1.812 c -0.219,0.199 -0.434,0.41 -0.645,0.629 l 0.645,-0.629" id="path98"></path>
                        </clipPath>
                        <linearGradient x1="0" y1="0" x2="1" y2="0" gradientUnits="userSpaceOnUse" gradientTransform="matrix(-227.583,-227.583,227.583,-227.583,348.27,277.039)" spreadMethod="pad" id="linearGradient106">
                            <stop style="stop-opacity:1;stop-color:#ff3a44" offset="0" id="stop102"></stop>
                            <stop style="stop-opacity:1;stop-color:#c31162" offset="1" id="stop104"></stop>
                        </linearGradient>
                        <clipPath clipPathUnits="userSpaceOnUse" id="clipPath116">
                            <path d="m 328.984,299.992 v 0 L 205.086,423.887 c 2.355,2.121 5.371,3.246 8.828,3.246 3.391,0 7.199,-1.082 11.223,-3.363 l 145.148,-82.473 -41.301,-41.305 m 42.235,42.238 -146.082,83 c -4.024,2.282 -7.832,3.364 -11.223,3.364 -0.016,0 -0.027,0 -0.043,0 0.02,0 0.035,0 0.059,0 3.383,0 7.187,-1.078 11.207,-3.36 L 371.219,342.23 M 213.84,428.594 v 0 0" id="path114"></path>
                        </clipPath>
                        <linearGradient x1="0" y1="0" x2="1" y2="0" gradientUnits="userSpaceOnUse" gradientTransform="matrix(101.625,-101.625,101.625,101.625,172.973,498.238)" spreadMethod="pad" id="linearGradient128">
                            <stop style="stop-opacity:1;stop-color:#32a071" offset="0" id="stop118"></stop>
                            <stop style="stop-opacity:1;stop-color:#2da771" offset="0.0685" id="stop120"></stop>
                            <stop style="stop-opacity:1;stop-color:#15cf74" offset="0.4762" id="stop122"></stop>
                            <stop style="stop-opacity:1;stop-color:#06e775" offset="0.8009" id="stop124"></stop>
                            <stop style="stop-opacity:1;stop-color:#00f076" offset="1" id="stop126"></stop>
                        </linearGradient>
                        <clipPath clipPathUnits="userSpaceOnUse" id="clipPath140">
                            <path d="m 370.277,257.215 v 0 l 0.942,0.535 -0.942,-0.535" id="path138"></path>
                        </clipPath>
                        <linearGradient x1="0" y1="0" x2="1" y2="0" gradientUnits="userSpaceOnUse" gradientTransform="matrix(-241.97,0,0,-241.97,438.344,299.986)" spreadMethod="pad" id="linearGradient150">
                            <stop style="stop-opacity:1;stop-color:#ccb300" offset="0" id="stop142"></stop>
                            <stop style="stop-opacity:1;stop-color:#cc9700" offset="0.4087" id="stop144"></stop>
                            <stop style="stop-opacity:1;stop-color:#cc8400" offset="0.7754" id="stop146"></stop>
                            <stop style="stop-opacity:1;stop-color:#cc7d00" offset="1" id="stop148"></stop>
                        </linearGradient>
                        <clipPath clipPathUnits="userSpaceOnUse" id="clipPath160">
                            <path d="m 213.938,171.387 c -3.461,0 -6.485,1.129 -8.84,3.254 l -0.004,-0.004 c -0.008,0.008 -0.02,0.019 -0.031,0.027 l -0.645,0.629 c -0.02,0.02 -0.039,0.043 -0.063,0.066 l 0.743,0.743 c 2.355,-2.125 5.375,-3.254 8.836,-3.25 3.382,0 7.187,1.078 11.203,3.355 l 145.152,82.473 0.93,-0.93 -0.942,-0.535 -145.14,-82.469 c -3.66,-2.074 -7.141,-3.156 -10.285,-3.336 -0.309,-0.015 -0.614,-0.023 -0.914,-0.023" id="path158"></path>
                        </clipPath>
                        <linearGradient x1="0" y1="0" x2="1" y2="0" gradientUnits="userSpaceOnUse" gradientTransform="matrix(-227.583,-227.583,227.583,-227.583,348.27,277.039)" spreadMethod="pad" id="linearGradient166">
                            <stop style="stop-opacity:1;stop-color:#cc2e36" offset="0" id="stop162"></stop>
                            <stop style="stop-opacity:1;stop-color:#9c0e4e" offset="1" id="stop164"></stop>
                        </linearGradient>
                        <clipPath clipPathUnits="userSpaceOnUse" id="clipPath178">
                            <path d="m 204.355,175.359 v 0 c -2.91,3.079 -4.628,7.856 -4.628,14.051 v 1.457 c 0,-6.191 1.718,-10.972 4.628,-14.051 l 0.743,-0.711 -0.743,-0.746" id="path176"></path>
                        </clipPath>
                        <linearGradient x1="0" y1="0" x2="1" y2="0" gradientUnits="userSpaceOnUse" gradientTransform="matrix(-167.825,-167.825,167.825,-167.825,317.998,412.903)" spreadMethod="pad" id="linearGradient192">
                            <stop style="stop-opacity:1;stop-color:#008de0" offset="0" id="stop180"></stop>
                            <stop style="stop-opacity:1;stop-color:#008de0" offset="0.0066" id="stop182"></stop>
                            <stop style="stop-opacity:1;stop-color:#00a7e0" offset="0.2601" id="stop184"></stop>
                            <stop style="stop-opacity:1;stop-color:#00b8e0" offset="0.5122" id="stop186"></stop>
                            <stop style="stop-opacity:1;stop-color:#00c4e0" offset="0.7604" id="stop188"></stop>
                            <stop style="stop-opacity:1;stop-color:#00c7e0" offset="1" id="stop190"></stop>
                        </linearGradient>
                        <clipPath clipPathUnits="userSpaceOnUse" id="clipPath202">
                            <path d="m 204.355,175.359 v 0 0 l 0.743,0.746 v -0.003 l -0.743,-0.743" id="path200"></path>
                        </clipPath>
                        <linearGradient x1="0" y1="0" x2="1" y2="0" gradientUnits="userSpaceOnUse" gradientTransform="matrix(-227.583,-227.583,227.583,-227.583,348.27,277.039)" spreadMethod="pad" id="linearGradient208">
                            <stop style="stop-opacity:1;stop-color:#e0333c" offset="0" id="stop204"></stop>
                            <stop style="stop-opacity:1;stop-color:#ab0f56" offset="1" id="stop206"></stop>
                        </linearGradient>
                        <clipPath clipPathUnits="userSpaceOnUse" id="clipPath220">
                            <path d="m 371.219,257.75 v 0 l -0.93,0.93 49.859,28.332 c 6.332,3.597 9.887,8.238 10.481,12.965 0,-1.735 -0.387,-3.469 -1.156,-5.157 -1.551,-3.402 -4.66,-6.617 -9.325,-9.269 L 371.219,257.75" id="path218"></path>
                        </clipPath>
                        <linearGradient x1="0" y1="0" x2="1" y2="0" gradientUnits="userSpaceOnUse" gradientTransform="matrix(-241.97,0,0,-241.97,438.344,299.986)" spreadMethod="pad" id="linearGradient230">
                            <stop style="stop-opacity:1;stop-color:#e0c500" offset="0" id="stop222"></stop>
                            <stop style="stop-opacity:1;stop-color:#e0a600" offset="0.4087" id="stop224"></stop>
                            <stop style="stop-opacity:1;stop-color:#e09100" offset="0.7754" id="stop226"></stop>
                            <stop style="stop-opacity:1;stop-color:#e08900" offset="1" id="stop228"></stop>
                        </linearGradient>
                        <clipPath clipPathUnits="userSpaceOnUse" id="clipPath242">
                            <path d="m 430.629,299.996 c -0.594,4.738 -4.149,9.375 -10.481,12.973 l -49.863,28.328 0.93,0.93 h 0.004 l 48.929,-27.801 c 6.981,-3.969 10.477,-9.199 10.481,-14.43" id="path240"></path>
                        </clipPath>
                        <linearGradient x1="0" y1="0" x2="1" y2="0" gradientUnits="userSpaceOnUse" gradientTransform="matrix(-241.97,0,0,-241.97,438.344,299.986)" spreadMethod="pad" id="linearGradient252">
                            <stop style="stop-opacity:1;stop-color:#ffe840" offset="0" id="stop244"></stop>
                            <stop style="stop-opacity:1;stop-color:#ffce40" offset="0.4087" id="stop246"></stop>
                            <stop style="stop-opacity:1;stop-color:#ffbc40" offset="0.7754" id="stop248"></stop>
                            <stop style="stop-opacity:1;stop-color:#ffb540" offset="1" id="stop250"></stop>
                        </linearGradient>
                        <clipPath clipPathUnits="userSpaceOnUse" id="clipPath264">
                            <path d="m 199.727,409.105 v 1.461 c 0,0.02 0,0.036 0,0.055 0,0.004 0,0.008 0,0.012 0,0.551 0.015,1.09 0.043,1.613 0,0.008 0,0.016 0,0.024 0,0.007 0,0.015 0.003,0.023 0,0.016 0,0.031 0,0.047 0,0.004 0,0.008 0,0.012 0.301,5.332 1.957,9.492 4.582,12.269 v 0 0 l 0.731,-0.734 c -3.356,-3.028 -5.359,-8.078 -5.359,-14.782 m 5.339,16.215 0.028,0.028 c -0.008,-0.012 -0.02,-0.02 -0.028,-0.028" id="path262"></path>
                        </clipPath>
                        <linearGradient x1="0" y1="0" x2="1" y2="0" gradientUnits="userSpaceOnUse" gradientTransform="matrix(-167.825,-167.825,167.825,-167.825,317.998,412.903)" spreadMethod="pad" id="linearGradient278">
                            <stop style="stop-opacity:1;stop-color:#40b8ff" offset="0" id="stop266"></stop>
                            <stop style="stop-opacity:1;stop-color:#40b9ff" offset="0.0066" id="stop268"></stop>
                            <stop style="stop-opacity:1;stop-color:#40ceff" offset="0.2601" id="stop270"></stop>
                            <stop style="stop-opacity:1;stop-color:#40ddff" offset="0.5122" id="stop272"></stop>
                            <stop style="stop-opacity:1;stop-color:#40e7ff" offset="0.7604" id="stop274"></stop>
                            <stop style="stop-opacity:1;stop-color:#40eaff" offset="1" id="stop276"></stop>
                        </linearGradient>
                        <clipPath clipPathUnits="userSpaceOnUse" id="clipPath290">
                            <path d="M 370.285,341.297 225.137,423.77 c -4.024,2.281 -7.832,3.363 -11.223,3.363 -3.457,0 -6.473,-1.125 -8.828,-3.246 l -0.731,0.734 v 0 c 0.231,0.242 0.465,0.477 0.711,0.699 0.008,0.008 0.02,0.016 0.028,0.024 2.336,2.105 5.32,3.23 8.746,3.25 v 0 c 0.008,0 0.019,0 0.031,0 0.016,0 0.027,0 0.043,0 3.391,0 7.199,-1.082 11.223,-3.364 l 146.082,-83 -0.004,-0.003 -0.93,-0.93" id="path288"></path>
                        </clipPath>
                        <linearGradient x1="0" y1="0" x2="1" y2="0" gradientUnits="userSpaceOnUse" gradientTransform="matrix(101.625,-101.625,101.625,101.625,172.973,498.238)" spreadMethod="pad" id="linearGradient302">
                            <stop style="stop-opacity:1;stop-color:#65b895" offset="0" id="stop292"></stop>
                            <stop style="stop-opacity:1;stop-color:#62bd95" offset="0.0685" id="stop294"></stop>
                            <stop style="stop-opacity:1;stop-color:#50db97" offset="0.4762" id="stop296"></stop>
                            <stop style="stop-opacity:1;stop-color:#44ed98" offset="0.8009" id="stop298"></stop>
                            <stop style="stop-opacity:1;stop-color:#40f498" offset="1" id="stop300"></stop>
                        </linearGradient>
                    </defs>
                    <path d="M 1588.421 122.848 L 338.421 122.848 C 310.921 122.848 288.421 145.348 288.421 172.848 L 288.421 472.848 C 288.421 500.348 310.921 522.848 338.421 522.848 L 1588.421 522.848 C 1615.921 522.848 1638.421 500.348 1638.421 472.848 L 1638.421 172.848 C 1638.421 145.348 1615.921 122.848 1588.421 122.848" style="fill:#000000;fill-opacity:1;fill-rule:nonzero;stroke:none" id="path16" transform="matrix(0.133333, 0, 0, -0.133333, -22.938959, 84.262947)"></path>
                    <path d="M 1588.421 522.848 L 338.421 522.848 C 310.921 522.848 288.421 500.348 288.421 472.848 L 288.421 172.848 C 288.421 145.348 310.921 122.848 338.421 122.848 L 1588.421 122.848 C 1615.921 122.848 1638.421 145.348 1638.421 172.848 L 1638.421 472.848 C 1638.421 500.348 1615.921 522.848 1588.421 522.848 M 1588.421 514.848 C 1611.581 514.848 1630.421 496.004 1630.421 472.848 L 1630.421 172.848 C 1630.421 149.688 1611.581 130.844 1588.421 130.844 L 338.421 130.844 C 315.265 130.844 296.421 149.688 296.421 172.848 L 296.421 472.848 C 296.421 496.004 315.265 514.848 338.421 514.848 L 1588.421 514.848" style="fill:#a6a6a6;fill-opacity:1;fill-rule:nonzero;stroke:none" id="path18" transform="matrix(0.133333, 0, 0, -0.133333, -22.938959, 84.262947)"></path>
                    <path d="M 762.605 420.414 C 762.605 412.036 760.124 405.364 755.155 400.387 C 749.511 394.469 742.155 391.508 733.112 391.508 C 724.452 391.508 717.089 394.508 711.034 400.516 C 704.968 406.52 701.941 413.965 701.941 422.848 C 701.941 431.735 704.968 439.176 711.034 445.184 C 717.089 451.188 724.452 454.192 733.112 454.192 C 737.409 454.192 741.523 453.352 745.429 451.676 C 749.335 449.996 752.468 447.766 754.812 444.973 L 749.538 439.696 C 745.566 444.442 740.097 446.813 733.112 446.813 C 726.796 446.813 721.335 444.594 716.726 440.153 C 712.116 435.707 709.812 429.942 709.812 422.848 C 709.812 415.754 712.116 409.989 716.726 405.543 C 721.335 401.102 726.796 398.883 733.112 398.883 C 739.812 398.883 745.398 401.114 749.87 405.582 C 752.773 408.493 754.452 412.539 754.901 417.735 L 733.112 417.735 L 733.112 424.942 L 762.187 424.942 C 762.468 423.375 762.605 421.871 762.605 420.414" style="fill:#ffffff;fill-opacity:1;fill-rule:nonzero;stroke:none" id="path20" transform="matrix(0.133333, 0, 0, -0.133333, -22.938959, 84.262947)"></path>
                    <path d="M 762.605 420.414 L 761.605 420.414 C 761.597 412.227 759.206 405.868 754.448 401.094 L 754.437 401.086 L 754.433 401.078 C 748.968 395.364 741.944 392.52 733.112 392.508 C 724.683 392.52 717.628 395.395 711.737 401.223 C 705.859 407.063 702.952 414.192 702.941 422.848 C 702.952 431.508 705.859 438.633 711.737 444.469 C 717.628 450.301 724.683 453.18 733.112 453.192 C 737.28 453.192 741.249 452.379 745.034 450.758 C 748.823 449.125 751.816 446.985 754.046 444.328 L 754.812 444.973 L 754.105 445.68 L 748.831 440.399 L 749.538 439.696 L 750.308 440.336 C 746.151 445.317 740.316 447.828 733.112 447.813 C 726.562 447.821 720.8 445.481 716.034 440.871 C 711.222 436.246 708.804 430.157 708.812 422.848 C 708.804 415.539 711.222 409.45 716.034 404.825 C 720.8 400.215 726.562 397.875 733.112 397.883 C 740.034 397.871 745.933 400.219 750.577 404.875 L 750.577 404.875 C 753.679 407.985 755.437 412.293 755.898 417.649 L 755.991 418.735 L 734.112 418.735 L 734.112 423.942 L 762.187 423.942 L 762.187 424.942 L 761.202 424.766 C 761.476 423.25 761.605 421.809 761.605 420.414 L 762.605 420.414 L 763.605 420.414 C 763.605 421.934 763.464 423.496 763.171 425.121 L 763.023 425.942 L 732.112 425.942 L 732.112 417.735 L 732.112 416.735 L 754.901 416.735 L 754.901 417.735 L 753.905 417.821 C 753.464 412.789 751.862 409 749.163 406.289 L 749.163 406.289 C 744.866 402.008 739.593 399.895 733.112 399.883 C 727.03 399.891 721.87 401.985 717.421 406.262 C 713.015 410.524 710.823 415.965 710.812 422.848 C 710.823 429.731 713.015 435.172 717.421 439.434 C 721.87 443.711 727.03 445.805 733.112 445.813 C 739.874 445.797 744.98 443.563 748.773 439.051 L 749.476 438.215 L 755.519 444.266 L 756.167 444.914 L 755.577 445.614 C 753.12 448.543 749.847 450.868 745.823 452.594 C 741.792 454.325 737.538 455.192 733.112 455.192 C 724.222 455.2 716.55 452.075 710.327 445.891 C 704.081 439.719 700.933 431.961 700.941 422.848 C 700.933 413.739 704.081 405.977 710.331 399.801 C 716.55 393.621 724.222 390.5 733.112 390.508 C 742.37 390.5 750.05 393.575 755.878 399.696 L 755.155 400.387 L 755.862 399.68 C 761.042 404.856 763.612 411.848 763.605 420.414 L 762.605 420.414" style="fill:#ffffff;fill-opacity:1;fill-rule:nonzero;stroke:none" id="path22" transform="matrix(0.133333, 0, 0, -0.133333, -22.938959, 84.262947)"></path>
                    <path d="M 808.698 445.477 L 781.374 445.477 L 781.374 426.453 L 806.015 426.453 L 806.015 419.243 L 781.374 419.243 L 781.374 400.219 L 808.698 400.219 L 808.698 392.848 L 773.671 392.848 L 773.671 452.848 L 808.698 452.848 L 808.698 445.477" style="fill:#ffffff;fill-opacity:1;fill-rule:nonzero;stroke:none" id="path24" transform="matrix(0.133333, 0, 0, -0.133333, -22.938959, 84.262947)"></path>
                    <path d="M 808.698 445.477 L 808.698 446.477 L 780.374 446.477 L 780.374 425.453 L 805.015 425.453 L 805.015 420.246 L 780.374 420.243 L 780.374 399.219 L 807.698 399.219 L 807.698 393.848 L 774.671 393.848 L 774.671 451.848 L 807.698 451.848 L 807.698 445.477 L 808.698 445.477 L 808.698 446.477 L 808.698 445.477 L 809.698 445.477 L 809.698 452.848 L 809.698 453.848 L 772.671 453.848 L 772.671 391.848 L 809.698 391.848 L 809.698 400.219 L 809.698 401.219 L 782.374 401.219 L 782.374 418.243 L 807.015 418.243 L 807.015 426.453 L 807.015 427.453 L 782.374 427.453 L 782.374 444.477 L 809.698 444.477 L 809.698 445.477 L 808.698 445.477" style="fill:#ffffff;fill-opacity:1;fill-rule:nonzero;stroke:none" id="path26" transform="matrix(0.133333, 0, 0, -0.133333, -22.938959, 84.262947)"></path>
                    <path d="M 841.21 392.848 L 833.495 392.848 L 833.495 445.477 L 816.737 445.477 L 816.737 452.848 L 857.968 452.848 L 857.968 445.477 L 841.21 445.477 L 841.21 392.848" style="fill:#ffffff;fill-opacity:1;fill-rule:nonzero;stroke:none" id="path28" transform="matrix(0.133333, 0, 0, -0.133333, -22.938959, 84.262947)"></path>
                    <path d="M 841.21 392.848 L 841.21 393.848 L 834.495 393.848 L 834.495 446.477 L 817.737 446.477 L 817.737 451.848 L 856.968 451.848 L 856.968 446.477 L 840.21 446.477 L 840.21 392.848 L 841.21 392.848 L 841.21 393.848 L 841.21 392.848 L 842.21 392.848 L 842.21 444.477 L 858.968 444.477 L 858.968 452.848 L 858.968 453.848 L 815.737 453.848 L 815.737 445.477 L 815.737 444.477 L 832.495 444.477 L 832.495 391.848 L 841.21 391.848 L 842.21 391.848 L 842.21 392.848 L 841.21 392.848" style="fill:#ffffff;fill-opacity:1;fill-rule:nonzero;stroke:none" id="path30" transform="matrix(0.133333, 0, 0, -0.133333, -22.938959, 84.262947)"></path>
                    <path d="M 887.8 392.848 L 887.8 452.848 L 895.507 452.848 L 895.507 392.848 L 887.8 392.848" style="fill:#ffffff;fill-opacity:1;fill-rule:nonzero;stroke:none" id="path32" transform="matrix(0.133333, 0, 0, -0.133333, -22.938959, 84.262947)"></path>
                    <path d="M 887.8 392.848 L 888.8 392.848 L 888.8 451.848 L 894.507 451.848 L 894.507 393.848 L 887.8 393.848 L 887.8 392.848 L 888.8 392.848 L 887.8 392.848 L 887.8 391.848 L 895.507 391.848 L 896.507 391.848 L 896.507 453.848 L 887.8 453.848 L 886.8 453.848 L 886.8 391.848 L 887.8 391.848 L 887.8 392.848" style="fill:#ffffff;fill-opacity:1;fill-rule:nonzero;stroke:none" id="path34" transform="matrix(0.133333, 0, 0, -0.133333, -22.938959, 84.262947)"></path>
                    <path d="M 929.706 392.848 L 921.991 392.848 L 921.991 445.477 L 905.234 445.477 L 905.234 452.848 L 946.464 452.848 L 946.464 445.477 L 929.706 445.477 L 929.706 392.848" style="fill:#ffffff;fill-opacity:1;fill-rule:nonzero;stroke:none" id="path36" transform="matrix(0.133333, 0, 0, -0.133333, -22.938959, 84.262947)"></path>
                    <path d="M 929.706 392.848 L 929.706 393.848 L 922.991 393.848 L 922.991 446.477 L 906.234 446.477 L 906.234 451.848 L 945.464 451.848 L 945.464 446.477 L 928.706 446.477 L 928.706 392.848 L 929.706 392.848 L 929.706 393.848 L 929.706 392.848 L 930.706 392.848 L 930.706 444.477 L 947.464 444.477 L 947.464 452.848 L 947.464 453.848 L 904.234 453.848 L 904.234 445.477 L 904.234 444.477 L 920.991 444.477 L 920.991 391.848 L 929.706 391.848 L 930.706 391.848 L 930.706 392.848 L 929.706 392.848" style="fill:#ffffff;fill-opacity:1;fill-rule:nonzero;stroke:none" id="path38" transform="matrix(0.133333, 0, 0, -0.133333, -22.938959, 84.262947)"></path>
                    <path d="M 986.214 405.625 C 990.655 401.129 996.089 398.883 1002.515 398.883 C 1008.941 398.883 1014.378 401.129 1018.812 405.625 C 1023.257 410.121 1025.484 415.868 1025.484 422.848 C 1025.484 429.828 1023.257 435.575 1018.812 440.071 C 1014.378 444.567 1008.941 446.813 1002.515 446.813 C 996.089 446.813 990.655 444.567 986.214 440.071 C 981.78 435.575 979.554 429.828 979.554 422.848 C 979.554 415.868 981.78 410.121 986.214 405.625 Z M 1024.515 400.602 C 1018.616 394.536 1011.28 391.508 1002.515 391.508 C 993.741 391.508 986.409 394.536 980.523 400.602 C 974.62 406.661 971.683 414.078 971.683 422.848 C 971.683 431.618 974.62 439.036 980.523 445.094 C 986.409 451.161 993.741 454.192 1002.515 454.192 C 1011.234 454.192 1018.55 451.145 1024.476 445.055 C 1030.394 438.965 1033.355 431.563 1033.355 422.848 C 1033.355 414.078 1030.401 406.661 1024.515 400.602" style="fill:#ffffff;fill-opacity:1;fill-rule:nonzero;stroke:none" id="path40" transform="matrix(0.133333, 0, 0, -0.133333, -22.938959, 84.262947)"></path>
                    <path d="M 986.214 405.625 L 985.503 404.922 C 990.109 400.246 995.855 397.871 1002.515 397.883 C 1009.171 397.871 1014.925 400.246 1019.523 404.922 C 1024.159 409.602 1026.491 415.657 1026.484 422.848 C 1026.491 430.039 1024.159 436.094 1019.523 440.774 L 1019.523 440.774 C 1014.925 445.45 1009.171 447.825 1002.515 447.813 C 995.855 447.825 990.109 445.45 985.503 440.774 L 985.503 440.774 C 980.878 436.094 978.542 430.039 978.554 422.848 C 978.542 415.657 980.878 409.602 985.503 404.922 L 986.214 405.625 L 986.925 406.328 C 982.683 410.645 980.562 416.075 980.554 422.848 C 980.562 429.621 982.683 435.051 986.925 439.368 L 986.925 439.368 C 991.206 443.684 996.319 445.801 1002.515 445.813 C 1008.706 445.801 1013.831 443.684 1018.101 439.368 L 1018.101 439.368 C 1022.351 435.051 1024.472 429.621 1024.48 422.848 C 1024.472 416.075 1022.351 410.645 1018.101 406.328 C 1013.831 402.012 1008.706 399.895 1002.515 399.883 C 996.319 399.895 991.206 402.012 986.925 406.328 Z M 1024.515 400.602 L 1023.8 401.297 C 1018.066 395.422 1011.054 392.52 1002.515 392.508 C 993.972 392.52 986.96 395.422 981.237 401.297 L 981.21 401.328 L 981.237 401.297 C 975.515 407.192 972.691 414.301 972.683 422.848 C 972.691 431.395 975.515 438.504 981.237 444.399 L 981.237 444.399 C 986.96 450.274 993.972 453.18 1002.515 453.192 C 1010.999 453.18 1017.995 450.262 1023.761 444.356 C 1029.503 438.434 1032.343 431.336 1032.355 422.848 C 1032.343 414.301 1029.511 407.192 1023.8 401.297 L 1024.515 400.602 L 1025.234 399.907 C 1031.296 406.133 1034.362 413.856 1034.355 422.848 C 1034.362 431.789 1031.284 439.496 1025.194 445.75 C 1019.101 452.028 1011.468 455.203 1002.515 455.192 C 993.515 455.203 985.859 452.043 979.804 445.789 L 979.804 445.793 C 973.73 439.563 970.675 431.84 970.683 422.848 C 970.675 413.856 973.73 406.133 979.804 399.903 L 979.831 399.875 L 979.804 399.907 C 985.859 393.653 993.515 390.5 1002.515 390.508 C 1011.511 390.5 1019.167 393.653 1025.234 399.907 L 1024.515 400.602" style="fill:#ffffff;fill-opacity:1;fill-rule:nonzero;stroke:none" id="path42" transform="matrix(0.133333, 0, 0, -0.133333, -22.938959, 84.262947)"></path>
                    <path d="M 1044.175 392.848 L 1044.175 452.848 L 1053.558 452.848 L 1082.718 406.172 L 1083.05 406.172 L 1082.718 417.735 L 1082.718 452.848 L 1090.433 452.848 L 1090.433 392.848 L 1082.386 392.848 L 1051.878 441.786 L 1051.546 441.786 L 1051.878 430.219 L 1051.878 392.848 L 1044.175 392.848" style="fill:#ffffff;fill-opacity:1;fill-rule:nonzero;stroke:none" id="path44" transform="matrix(0.133333, 0, 0, -0.133333, -22.938959, 84.262947)"></path>
                    <path d="M 1044.175 392.848 L 1045.175 392.848 L 1045.175 451.848 L 1053.003 451.848 L 1082.163 405.172 L 1083.05 405.172 L 1084.077 405.172 L 1083.718 417.75 L 1083.718 451.848 L 1089.433 451.848 L 1089.433 393.848 L 1082.941 393.848 L 1052.433 442.786 L 1051.546 442.786 L 1050.519 442.786 L 1050.878 430.203 L 1050.878 393.848 L 1044.175 393.848 L 1044.175 392.848 L 1045.175 392.848 L 1044.175 392.848 L 1044.175 391.848 L 1051.878 391.848 L 1052.878 391.848 L 1052.878 430.235 L 1052.546 441.813 L 1051.546 441.786 L 1051.546 440.786 L 1051.878 440.786 L 1051.878 441.786 L 1051.03 441.254 L 1081.831 391.848 L 1090.433 391.848 L 1091.433 391.848 L 1091.433 453.848 L 1082.718 453.848 L 1081.718 453.848 L 1081.718 417.723 L 1082.05 406.145 L 1083.05 406.172 L 1083.05 407.172 L 1082.718 407.172 L 1082.718 406.172 L 1083.566 406.703 L 1054.112 453.848 L 1044.175 453.848 L 1043.175 453.848 L 1043.175 391.848 L 1044.175 391.848 L 1044.175 392.848" style="fill:#ffffff;fill-opacity:1;fill-rule:nonzero;stroke:none" id="path46" transform="matrix(0.133333, 0, 0, -0.133333, -22.938959, 84.262947)"></path>
                    <path d="M 1357.781 222.848 L 1376.441 222.848 L 1376.441 347.86 L 1357.781 347.86 Z M 1525.851 302.828 L 1504.461 248.629 L 1503.821 248.629 L 1481.621 302.828 L 1461.521 302.828 L 1494.811 227.075 L 1475.831 184.938 L 1495.301 184.938 L 1546.601 302.828 Z M 1420.031 237.047 C 1413.911 237.047 1405.391 240.102 1405.391 247.664 C 1405.391 257.313 1416.011 261.012 1425.171 261.012 C 1433.381 261.012 1437.231 259.243 1442.221 256.828 C 1440.771 245.25 1430.801 237.047 1420.031 237.047 Z M 1422.281 305.563 C 1408.771 305.563 1394.781 299.61 1388.991 286.422 L 1405.551 279.508 C 1409.091 286.422 1415.681 288.676 1422.601 288.676 C 1432.251 288.676 1442.061 282.883 1442.221 272.59 L 1442.221 271.305 C 1438.841 273.235 1431.611 276.129 1422.761 276.129 C 1404.911 276.129 1386.731 266.321 1386.731 247.985 C 1386.731 231.258 1401.371 220.481 1417.771 220.481 C 1430.321 220.481 1437.231 226.11 1441.581 232.703 L 1442.221 232.703 L 1442.221 223.055 L 1460.231 223.055 L 1460.231 270.985 C 1460.231 293.176 1443.671 305.563 1422.281 305.563 Z M 1306.961 287.61 L 1280.421 287.61 L 1280.421 330.461 L 1306.961 330.461 C 1320.911 330.461 1328.831 318.911 1328.831 309.036 C 1328.831 299.348 1320.911 287.61 1306.961 287.61 Z M 1306.481 347.86 L 1261.771 347.86 L 1261.771 222.848 L 1280.421 222.848 L 1280.421 270.211 L 1306.481 270.211 C 1327.161 270.211 1347.491 285.184 1347.491 309.036 C 1347.491 332.887 1327.161 347.86 1306.481 347.86 Z M 1062.671 237.024 C 1049.78 237.024 1038.987 247.817 1038.987 262.641 C 1038.987 277.621 1049.78 288.578 1062.671 288.578 C 1075.398 288.578 1085.386 277.621 1085.386 262.641 C 1085.386 247.817 1075.398 237.024 1062.671 237.024 Z M 1084.097 295.828 L 1083.452 295.828 C 1079.265 300.821 1071.206 305.332 1061.058 305.332 C 1039.792 305.332 1020.3 286.645 1020.3 262.641 C 1020.3 238.797 1039.792 220.27 1061.058 220.27 C 1071.206 220.27 1079.265 224.782 1083.452 229.934 L 1084.097 229.934 L 1084.097 223.813 C 1084.097 207.539 1075.398 198.84 1061.382 198.84 C 1049.944 198.84 1042.855 207.059 1039.952 213.985 L 1023.683 207.219 C 1028.355 195.942 1040.761 182.086 1061.382 182.086 C 1083.292 182.086 1101.819 194.977 1101.819 226.391 L 1101.819 302.754 L 1084.097 302.754 Z M 1114.706 222.848 L 1133.394 222.848 L 1133.394 347.864 L 1114.706 347.864 Z M 1160.944 264.09 C 1160.46 280.524 1173.671 288.899 1183.175 288.899 C 1190.591 288.899 1196.871 285.196 1198.961 279.875 Z M 1218.941 278.266 C 1215.401 287.774 1204.601 305.332 1182.53 305.332 C 1160.62 305.332 1142.417 288.094 1142.417 262.801 C 1142.417 238.957 1160.46 220.27 1184.624 220.27 C 1204.121 220.27 1215.401 232.192 1220.071 239.118 L 1205.571 248.786 C 1200.741 241.696 1194.131 237.024 1184.624 237.024 C 1175.12 237.024 1168.355 241.375 1164.003 249.911 L 1220.871 273.434 Z M 765.859 292.282 L 765.859 274.239 L 809.034 274.239 C 807.745 264.09 804.362 256.68 799.206 251.524 C 792.925 245.239 783.097 238.313 765.859 238.313 C 739.276 238.313 718.495 259.739 718.495 286.321 C 718.495 312.903 739.276 334.332 765.859 334.332 C 780.198 334.332 790.667 328.692 798.401 321.442 L 811.128 334.168 C 800.335 344.481 785.995 352.375 765.859 352.375 C 729.448 352.375 698.839 322.731 698.839 286.321 C 698.839 249.911 729.448 220.27 765.859 220.27 C 785.515 220.27 800.335 226.711 811.933 238.797 C 823.855 250.719 827.562 267.473 827.562 281.004 C 827.562 285.196 827.241 289.059 826.593 292.282 Z M 876.648 237.024 C 863.757 237.024 852.64 247.657 852.64 262.801 C 852.64 278.106 863.757 288.578 876.648 288.578 C 889.534 288.578 900.651 278.106 900.651 262.801 C 900.651 247.657 889.534 237.024 876.648 237.024 Z M 876.648 305.332 C 853.124 305.332 833.952 287.45 833.952 262.801 C 833.952 238.313 853.124 220.27 876.648 220.27 C 900.167 220.27 919.339 238.313 919.339 262.801 C 919.339 287.45 900.167 305.332 876.648 305.332 Z M 969.78 237.024 C 956.894 237.024 945.776 247.657 945.776 262.801 C 945.776 278.106 956.894 288.578 969.78 288.578 C 982.667 288.578 993.784 278.106 993.784 262.801 C 993.784 247.657 982.667 237.024 969.78 237.024 Z M 969.78 305.332 C 946.257 305.332 927.089 287.45 927.089 262.801 C 927.089 238.313 946.257 220.27 969.78 220.27 C 993.3 220.27 1012.472 238.313 1012.472 262.801 C 1012.472 287.45 993.3 305.332 969.78 305.332" style="fill:#ffffff;fill-opacity:1;fill-rule:nonzero;stroke:none" id="path48" transform="matrix(0.133333, 0, 0, -0.133333, -22.938959, 84.262947)"></path>
                    <g id="g50" transform="matrix(0.133333, 0, 0, -0.133333, 2.183776, 81.216507)">
                        <g id="g52" clip-path="url(#clipPath56)">
                            <path d="m 205.098,176.105 -0.743,0.711 c -2.91,3.079 -4.628,7.86 -4.628,14.051 v -1.457 0 221.16 c 0,0.02 0,0.035 0,0.051 0,-0.019 0,-0.035 0,-0.055 v -1.461 c 0,6.704 2.003,11.754 5.359,14.782 L 328.984,299.992 205.098,176.105 m -5.371,234.528 c 0,0.551 0.015,1.086 0.043,1.613 -0.028,-0.523 -0.043,-1.062 -0.043,-1.613 m 0.043,1.637 c 0,0.007 0,0.015 0.003,0.023 -0.003,-0.008 -0.003,-0.016 -0.003,-0.023 m 0.003,0.07 c 0,0.004 0,0.008 0,0.012 0,-0.004 0,-0.008 0,-0.012" style="fill:url(#linearGradient70);fill-opacity:1;fill-rule:nonzero;stroke:none" id="path72"></path>
                        </g>
                    </g>
                    <g id="g74" transform="matrix(0.133333, 0, 0, -0.133333, 2.183776, 81.216507)">
                        <g id="g76" clip-path="url(#clipPath80)">
                            <path d="m 370.277,257.215 v 0 l 0.942,0.535 48.929,27.801 c 4.665,2.652 7.774,5.867 9.325,9.269 -1.547,-3.402 -4.657,-6.621 -9.325,-9.273 l -48.929,-27.801 -0.942,-0.531 m 0.012,1.465 -41.305,41.312 41.301,41.305 49.863,-28.328 c 6.332,-3.598 9.887,-8.235 10.481,-12.973 0,-0.004 0,-0.012 0,-0.019 -0.594,-4.727 -4.149,-9.368 -10.481,-12.965 L 370.289,258.68" style="fill:url(#linearGradient90);fill-opacity:1;fill-rule:nonzero;stroke:none" id="path92"></path>
                        </g>
                    </g>
                    <g id="g94" transform="matrix(0.133333, 0, 0, -0.133333, 2.183776, 81.216507)">
                        <g id="g96" clip-path="url(#clipPath100)">
                            <path d="m 213.93,171.387 c -3.461,0 -6.481,1.125 -8.836,3.25 l 0.004,0.004 c 2.355,-2.125 5.379,-3.254 8.84,-3.254 0.3,0 0.605,0.008 0.914,0.023 -0.313,-0.015 -0.622,-0.023 -0.922,-0.023 m 0.004,1.465 c -3.461,-0.004 -6.481,1.125 -8.836,3.25 v 0 0.003 l 123.886,123.887 41.305,-41.312 v 0 L 225.137,176.207 c -4.016,-2.277 -7.821,-3.355 -11.203,-3.355 m -8.871,1.812 c -0.219,0.199 -0.434,0.41 -0.645,0.629 l 0.645,-0.629" style="fill:url(#linearGradient106);fill-opacity:1;fill-rule:nonzero;stroke:none" id="path108"></path>
                        </g>
                    </g>
                    <g id="g110" transform="matrix(0.133333, 0, 0, -0.133333, 2.183776, 81.216507)">
                        <g id="g112" clip-path="url(#clipPath116)">
                            <path d="m 328.984,299.992 v 0 L 205.086,423.887 c 2.355,2.121 5.371,3.246 8.828,3.246 3.391,0 7.199,-1.082 11.223,-3.363 l 145.148,-82.473 -41.301,-41.305 m 42.235,42.238 -146.082,83 c -4.024,2.282 -7.832,3.364 -11.223,3.364 -0.016,0 -0.027,0 -0.043,0 0.02,0 0.035,0 0.059,0 3.383,0 7.187,-1.078 11.207,-3.36 L 371.219,342.23 M 213.84,428.594 v 0 0" style="fill:url(#linearGradient128);fill-opacity:1;fill-rule:nonzero;stroke:none" id="path130"></path>
                        </g>
                    </g>
                    <path d="M 403.273 194.258 C 406.417 194.438 409.898 195.52 413.558 197.594 L 558.698 280.063 L 558.698 280.063 L 413.558 197.594 C 409.901 195.516 406.417 194.438 403.273 194.258 M 393.515 197.485 L 393.484 197.512 C 393.495 197.504 393.507 197.493 393.515 197.485 L 393.515 197.485 M 392.839 198.141 L 392.776 198.203 L 392.776 198.207 C 392.8 198.184 392.819 198.161 392.839 198.141" style="fill:#000000;fill-opacity:1;fill-rule:nonzero;stroke:none" id="path132" transform="matrix(0.133333, 0, 0, -0.133333, -22.938959, 84.262947)"></path>
                    <g id="g134" transform="matrix(0.133333, 0, 0, -0.133333, 2.183776, 81.216507)">
                        <g id="g136" clip-path="url(#clipPath140)">
                            <path d="m 370.277,257.215 v 0 l 0.942,0.535 -0.942,-0.535" style="fill:url(#linearGradient150);fill-opacity:1;fill-rule:nonzero;stroke:none" id="path152"></path>
                        </g>
                    </g>
                    <g id="g154" transform="matrix(0.133333, 0, 0, -0.133333, 2.183776, 81.216507)">
                        <g id="g156" clip-path="url(#clipPath160)">
                            <path d="m 213.938,171.387 c -3.461,0 -6.485,1.129 -8.84,3.254 l -0.004,-0.004 c -0.008,0.008 -0.02,0.019 -0.031,0.027 l -0.645,0.629 c -0.02,0.02 -0.039,0.043 -0.063,0.066 l 0.743,0.743 c 2.355,-2.125 5.375,-3.254 8.836,-3.25 3.382,0 7.187,1.078 11.203,3.355 l 145.152,82.473 0.93,-0.93 -0.942,-0.535 -145.14,-82.469 c -3.66,-2.074 -7.141,-3.156 -10.285,-3.336 -0.309,-0.015 -0.614,-0.023 -0.914,-0.023" style="fill:url(#linearGradient166);fill-opacity:1;fill-rule:nonzero;stroke:none" id="path168"></path>
                        </g>
                    </g>
                    <path d="M 392.776 198.203 C 389.866 201.282 388.148 206.063 388.148 212.254 L 388.148 212.258 C 388.148 206.063 389.866 201.286 392.776 198.207 L 392.776 198.207 L 392.776 198.207 L 392.776 198.203" style="fill:#000000;fill-opacity:1;fill-rule:nonzero;stroke:none" id="path170" transform="matrix(0.133333, 0, 0, -0.133333, -22.938959, 84.262947)"></path>
                    <g id="g172" transform="matrix(0.133333, 0, 0, -0.133333, 2.183776, 81.216507)">
                        <g id="g174" clip-path="url(#clipPath178)">
                            <path d="m 204.355,175.359 v 0 c -2.91,3.079 -4.628,7.856 -4.628,14.051 v 1.457 c 0,-6.191 1.718,-10.972 4.628,-14.051 l 0.743,-0.711 -0.743,-0.746" style="fill:url(#linearGradient192);fill-opacity:1;fill-rule:nonzero;stroke:none" id="path194"></path>
                        </g>
                    </g>
                    <g id="g196" transform="matrix(0.133333, 0, 0, -0.133333, 2.183776, 81.216507)">
                        <g id="g198" clip-path="url(#clipPath202)">
                            <path d="m 204.355,175.359 v 0 0 l 0.743,0.746 v -0.003 l -0.743,-0.743" style="fill:url(#linearGradient208);fill-opacity:1;fill-rule:nonzero;stroke:none" id="path210"></path>
                        </g>
                    </g>
                    <path d="M 617.894 317.668 C 618.663 319.356 619.05 321.09 619.05 322.825 C 619.05 322.828 619.05 322.832 619.05 322.832 C 619.05 321.094 618.663 319.36 617.894 317.668" style="fill:#000000;fill-opacity:1;fill-rule:nonzero;stroke:none" id="path212" transform="matrix(0.133333, 0, 0, -0.133333, -22.938959, 84.262947)"></path>
                    <g id="g214" transform="matrix(0.133333, 0, 0, -0.133333, 2.183776, 81.216507)">
                        <g id="g216" clip-path="url(#clipPath220)">
                            <path d="m 371.219,257.75 v 0 l -0.93,0.93 49.859,28.332 c 6.332,3.597 9.887,8.238 10.481,12.965 0,-1.735 -0.387,-3.469 -1.156,-5.157 -1.551,-3.402 -4.66,-6.617 -9.325,-9.269 L 371.219,257.75" style="fill:url(#linearGradient230);fill-opacity:1;fill-rule:nonzero;stroke:none" id="path232"></path>
                        </g>
                    </g>
                    <path d="M 619.05 322.84 L 619.05 322.844 C 619.046 328.075 615.55 333.305 608.569 337.274 L 559.64 365.075 L 559.636 365.075 L 559.64 365.078 L 608.569 337.278 C 615.558 333.309 619.058 328.071 619.05 322.84" style="fill:#404040;fill-opacity:1;fill-rule:nonzero;stroke:none" id="path234" transform="matrix(0.133333, 0, 0, -0.133333, -22.938959, 84.262947)"></path>
                    <g id="g236" transform="matrix(0.133333, 0, 0, -0.133333, 2.183776, 81.216507)">
                        <g id="g238" clip-path="url(#clipPath242)">
                            <path d="m 430.629,299.996 c -0.594,4.738 -4.149,9.375 -10.481,12.973 l -49.863,28.328 0.93,0.93 h 0.004 l 48.929,-27.801 c 6.981,-3.969 10.477,-9.199 10.481,-14.43" style="fill:url(#linearGradient252);fill-opacity:1;fill-rule:nonzero;stroke:none" id="path254"></path>
                        </g>
                    </g>
                    <path d="M 388.148 433.469 C 388.148 433.473 388.148 433.477 388.148 433.481 C 388.148 433.477 388.148 433.473 388.148 433.469 M 388.191 435.094 C 388.191 435.102 388.191 435.11 388.191 435.118 C 388.191 435.11 388.191 435.102 388.191 435.094 M 388.194 435.141 C 388.194 435.157 388.194 435.172 388.194 435.188 C 388.194 435.172 388.194 435.157 388.194 435.141 M 388.194 435.2 C 388.773 445.473 394.359 451.407 402.261 451.442 C 398.835 451.422 395.851 450.297 393.515 448.192 L 393.515 448.196 L 393.487 448.168 C 393.241 447.946 393.007 447.711 392.776 447.469 L 392.776 447.469 C 390.151 444.692 388.495 440.532 388.194 435.2" style="fill:#404040;fill-opacity:1;fill-rule:nonzero;stroke:none" id="path256" transform="matrix(0.133333, 0, 0, -0.133333, -22.938959, 84.262947)"></path>
                    <g id="g258" transform="matrix(0.133333, 0, 0, -0.133333, 2.183776, 81.216507)">
                        <g id="g260" clip-path="url(#clipPath264)">
                            <path d="m 199.727,409.105 v 1.461 c 0,0.02 0,0.036 0,0.055 0,0.004 0,0.008 0,0.012 0,0.551 0.015,1.09 0.043,1.613 0,0.008 0,0.016 0,0.024 0,0.007 0,0.015 0.003,0.023 0,0.016 0,0.031 0,0.047 0,0.004 0,0.008 0,0.012 0.301,5.332 1.957,9.492 4.582,12.269 v 0 0 l 0.731,-0.734 c -3.356,-3.028 -5.359,-8.078 -5.359,-14.782 m 5.339,16.215 0.028,0.028 c -0.008,-0.012 -0.02,-0.02 -0.028,-0.028" style="fill:url(#linearGradient278);fill-opacity:1;fill-rule:nonzero;stroke:none" id="path280"></path>
                        </g>
                    </g>
                    <path d="M 402.261 451.442 C 402.269 451.442 402.28 451.442 402.292 451.442 C 402.28 451.442 402.269 451.442 402.261 451.442" style="fill:#404040;fill-opacity:1;fill-rule:nonzero;stroke:none" id="path282" transform="matrix(0.133333, 0, 0, -0.133333, -22.938959, 84.262947)"></path>
                    <g id="g284" transform="matrix(0.133333, 0, 0, -0.133333, 2.183776, 81.216507)">
                        <g id="g286" clip-path="url(#clipPath290)">
                            <path d="M 370.285,341.297 225.137,423.77 c -4.024,2.281 -7.832,3.363 -11.223,3.363 -3.457,0 -6.473,-1.125 -8.828,-3.246 l -0.731,0.734 v 0 c 0.231,0.242 0.465,0.477 0.711,0.699 0.008,0.008 0.02,0.016 0.028,0.024 2.336,2.105 5.32,3.23 8.746,3.25 v 0 c 0.008,0 0.019,0 0.031,0 0.016,0 0.027,0 0.043,0 3.391,0 7.199,-1.082 11.223,-3.364 l 146.082,-83 -0.004,-0.003 -0.93,-0.93" style="fill:url(#linearGradient302);fill-opacity:1;fill-rule:nonzero;stroke:none" id="path304"></path>
                        </g>
                    </g>
                </svg>